<?xml version="1.0" encoding="UTF-8"?>
<svg xmlns="http://www.w3.org/2000/svg" viewBox="0 0 400 300" width="400" height="300">
  <!-- Last Light — Before night falls -->
  <g fill="none" stroke="#1a1a1a" stroke-linecap="round">
    
    <!-- Sky — fading warmth -->
    <g stroke-width="0.2" opacity="0.6">
      <line x1="0" y1="30" x2="400" y2="30"/>
      <line x1="0" y1="60" x2="400" y2="60"/>
      <line x1="0" y1="90" x2="400" y2="90"/>
      <line x1="0" y1="120" x2="400" y2="120"/>
    </g>
    
    <!-- Sun glow — barely visible -->
    <g stroke-width="0.4" opacity="0.5">
      <ellipse cx="100" cy="80" rx="40" ry="15"/>
    </g>
    
    <!-- Horizon glow -->
    <g stroke-width="0.3" opacity="0.4">
      <line x1="0" y1="145" x2="400" y2="145"/>
      <line x1="0" y1="150" x2="400" y2="150"/>
    </g>
    
    <!-- Silhouette landscape -->
    <g stroke="none" fill="#1a1a1a">
      <path d="M0,200 L50,180 L100,185 L150,175 L200,182 L250,170 L300,178 L350,168 L400,175 L400,250 L0,250 Z"/>
    </g>
    
    <!-- Single dead tree — dramatic silhouette -->
    <path d="M320,180 Q315,140 325,100 Q330,70 318,50" stroke-width="1.6" fill="<path d="Mnone"/>
    322,120 Q300,110 280,105" stroke-width="1.0" fill="none"/>
    <path d="M324,90 Q345,80 360,75" stroke-width="0.8" fill="none"/>
    
    <!-- Vines on tree -->
    <g stroke-width="0.4">
      <path d="M320,140 Q315,130 310,120 Q308,110 315,100" fill="none"/>
      <path d="M325,110 Q330,105 335,95" fill="none"/>
    </g>
    
    <!-- Reflection in water -->
    <g stroke-width="0.3" opacity="0.4">
      <line x1="200" y1="215" x2="200" y2="235"/>
      <line x1="220" y1="218" x2="220" y2="242"/>
      <line x1="245" y1="220" x2="245" y2="248"/>
      <line x1="270" y1="215" x2="270" y2="238"/>
      <line x1="295" y1="212" x2="295" y2="232"/>
    </g>
    
    <!-- Water suggestion -->
    <path d="M150,210 Q280,205 400,215" stroke-width="0.4" opacity="0.5"/>
    
    <!-- What this feels like: -->
    <!-- Last warmth fading -->
    <!-- Darkness coming -->
    <!-- Dramatic, peaceful, ending -->
  </g>
</svg>