<?xml version="1.0" encoding="UTF-8"?>
<svg xmlns="http://www.w3.org/2000/svg" viewBox="0 0 400 300" width="400" height="300">
  <!-- Rain — What if I draw ONLY rain? No ground, no sky, just rain. -->
  <g fill="none" stroke="#1a1a1a" stroke-width="0.4" stroke-linecap="round">
    <!-- Diagonal lines, all same angle -->
    <!-- Random positions, varying lengths -->
    
    <!-- Dense middle -->
    <line x1="10" y1="10" x2="25" y2="30" />
    <line x1="35" y1="5" x2="50" y2="28" />
    <line x1="60" y1="15" x2="75" y2="35" />
    <line x1="85" y1="0" x2="100" y2="25" />
    <line x1="110" y1="20" x2="125" y2="40" />
    <line x1="135" y1="8" x2="150" y2="32" />
    <line x1="160" y1="12" x2="175" y2="35" />
    <line x1="185" y1="5" x2="200" y2="28" />
    <line x1="210" y1="18" x2="225" y2="38" />
    <line x1="235" y1="2" x2="250" y2="26" />
    <line x1="260" y1="22" x2="275" y2="42" />
    <line x1="285" y1="10" x2="300" y2="34" />
    <line x1="310" y1="15" x2="325" y2="38" />
    <line x1="335" y1="3" x2="350" y2="27" />
    <line x1="360" y1="20" x2="375" y2="40" />
    <line x1="385" y1="8" x2="398" y2="30" />
    
    <!-- Random overlaps -->
    <line x1="20" y1="40" x2="35" y2="60" />
    <line x1="50" y1="35" x2="65" y2="58" />
    <line x1="80" y1="45" x2="95" y2="65" />
    <line x1="110" y1="38" x2="125" y2="61" />
    <line x1="140" y1="50" x2="155" y2="70" />
    <line x1="170" y1="42" x2="185" y2="65" />
    <line x1="200" y1="48" x2="215" y2="68" />
    <line x1="230" y1="40" x2="245" y2="63" />
    <line x1="260" y1="52" x2="275" y2="72" />
    <line x1="290" y1="45" x2="305" y2="68" />
    <line x1="320" y1="50" x2="335" y2="70" />
    <line x1="350" y1="42" x2="365" y2="65" />
    <line x1="380" y1="48" x2="395" y2="68" />
    
    <!-- Even more overlap -->
    <line x1="5" y1="70" x2="20" y2="90" />
    <line x1="40" y1="68" x2="55" y2="90" />
    <line x1="75" y1="75" x2="90" y2="95" />
    <line x1="105" y1="70" x2="120" y2="92" />
    <line x1="135" y1="78" x2="150" y2="98" />
    <line x1="165" y1="72" x2="180" y2="94" />
    <line x1="195" y1="80" x2="210" y2="100" />
    <line x1="225" y1="75" x2="240" y2="95" />
    <line x1="255" y1="78" x2="270" y2="98" />
    <line x1="285" y1="72" x2="300" y2="94" />
    <line x1="315" y1="80" x2="330" y2="100" />
    <line x1="345" y1="75" x2="360" y2="95" />
    <line x1="375" y1="78" x2="390" y2="98" />
    
    <!-- Bottom density -->
    <line x1="15" y1="110" x2="28" y2="130" />
    <line x1="45" y1="105" x2="58" y2="128" />
    <line x1="75" y1="112" x2="88" y2="132" />
    <line x1="105" y1="108" x2="118" y2="130" />
    <line x1="135" y1="115" x2="148" y2="135" />
    <line x1="165" y1="110" x2="178" y2="132" />
    <line x1="195" y1="105" x2="208" y2="128" />
    <line x1="225" y1="112" x2="238" y2="132" />
    <line x1="255" y1="108" x2="268" y2="130" />
    <line x1="285" y1="115" x2="298" y2="135" />
    <line x1="315" y1="110" x2="328" y2="132" />
    <line x1="345" y1="105" x2="358" y2="128" />
    <line x1="375" y1="112" x2="388" y2="132" />
    
    <!-- Just rain. -->
    <!-- Nothing else. -->
  </g>
</svg>