<?xml version="1.0" encoding="UTF-8"?>
<svg xmlns="http://www.w3.org/2000/svg" viewBox="0 0 400 300" width="400" height="300">
  <!-- Dead Forest — All trees dead, no leaves ever -->
  <g fill="none" stroke="#1a1a1a" stroke-linecap="round">
    
    <!-- Row 1: Distant dead trees -->
    <g stroke-width="0.8" opacity="0.4">
      <path d="M20,200 Q25,160 18,120" />
      <path d="M50,198 Q55,155 48,115" />
      <path d="M80,202 Q85,160 78,125" />
      <path d="M110,200 Q115,158 108,118" />
      <path d="M140,198 Q145,155 138,120" />
      <path d="M170,200 Q175,162 168,122" />
      <path d="M200,198 Q205,160 198,118" />
      <path d="M230,202 Q235,158 228,125" />
      <path d="M260,200 Q265,155 258,120" />
      <path d="M290,198 Q295,160 288,122" />
      <path d="M320,200 Q325,158 318,118" />
      <path d="M350,202 Q355,155 348,125" />
      <path d="M380,200 Q385,160 378,120" />
    </g>
    
    <!-- Row 2: Mid-distance -->
    <g stroke-width="1.0" opacity="0.6">
      <path d="M10,230 Q15,180 8,130" />
      <path d="M45,228 Q50,175 43,125" />
      <path d="M80,232 Q85,182 78,132" />
      <path d="M115,230 Q120,178 113,128" />
      <path d="M150,228 Q155,175 148,125" />
      <path d="M185,230 Q190,180 183,130" />
      <path d="M220,228 Q225,176 218,126" />
      <path d="M255,232 Q260,182 253,132" />
      <path d="M290,230 Q295,178 288,128" />
      <path d="M325,228 Q330,175 323,125" />
      <path d="M360,230 Q365,180 358,130" />
      <path d="M395,228 Q400,178 393,128" />
    </g>
    
    <!-- Row 3: Close -->
    <g stroke-width="1.4" opacity="0.8">
      <path d="M0,270 Q5,210 0,140" />
      <path d="M40,268 Q45,205 40,135" />
      <path d="M80,272 Q85,212 80,142" />
      <path d="M120,270 Q125,208 120,138" />
      <path d="M160,268 Q165,205 160,135" />
      <path d="M200,272 Q205,210 200,140" />
      <path d="M240,270 Q245,208 240,138" />
      <path d="M280,268 Q285,205 280,135" />
      <path d="M320,272 Q325,212 320,142" />
      <path d="M360,270 Q365,208 360,138" />
      <path d="M400,268 Q405,205 400,135" />
    </g>
    
    <!-- All dead. No leaves. -->
    <!-- Just reaching branches. -->
    <!-- Forever winter. -->
  </g>
</svg>