<?xml version="1.0" encoding="UTF-8"?>
<svg xmlns="http://www.w3.org/2000/svg" viewBox="0 0 400 300" width="400" height="300">
  <!-- Forest Edge — Value through density, NO fills -->
  <g fill="none" stroke="#1a1a1a" stroke-width="0.4" stroke-linecap="round">
    
    <!-- Sky lines — sparse, light -->
    <line x1="50" y1="30" x2="50" y2="55"/>
    <line x1="80" y1="25" x2="80" y2="60"/>
    <line x1="120" y1="20" x2="120" y2="65"/>
    <line x1="160" y1="18" x2="160" y2="70"/>
    <line x1="200" y1="15" x2="200" y2="75"/>
    <line x1="240" y1="18" x2="240" y2="70"/>
    <line x1="280" y1="22" x2="280" y2="65"/>
    <line x1="320" y1="28" x2="320" y2="60"/>
    <line x1="350" y1="32" x2="350" y2="55"/>
    
    <!-- Distant trees — light density, 2-3 strokes each -->
    <path d="M30,140 Q35,135 40,130 Q38,128 42,125 Q40,122 45,118"/>
    <path d="M60,145 Q65,140 70,135 Q68,132 75,128"/>
    <path d="M90,138 Q95,133 100,130 Q98,127 105,123"/>
    <path d="M130,142 Q135,137 140,134 Q138,131 145,128"/>
    <path d="M170,140 Q175,135 180,132 Q178,129 185,125"/>
    <path d="M210,138 Q215,133 220,130 Q218,127 225,124"/>
    <path d="M250,142 Q255,137 260,134 Q258,131 265,128"/>
    <path d="M290,140 Q295,135 300,132 Q298,129 305,125"/>
    <path d="M330,138 Q335,133 340,130 Q338,127 345,123"/>
    <path d="M365,142 Q370,137 375,134 Q373,131 380,128"/>
    
    <!-- Mid trees — medium density, 4-5 strokes -->
    <path d="M20,180 Q28,172 35,165 Q32,160 42,152 Q38,145 48,138"/>
    <path d="M50,178 Q58,170 65,162 Q62,157 72,150 Q68,143 78,135"/>
    <path d="M85,182 Q93,174 100,166 Q97,161 107,154 Q103,147 113,140"/>
    <path d="M120,178 Q128,170 135,163 Q132,158 142,151 Q138,144 148,137"/>
    <path d="M160,185 Q168,177 175,170 Q172,165 182,158 Q178,151 188,144"/>
    <path d="M200,180 Q208,172 215,165 Q212,160 222,153 Q218,146 228,139"/>
    <path d="M245,182 Q253,174 260,167 Q257,162 267,155 Q263,148 273,141"/>
    <path d="M290,178 Q298,170 305,163 Q302,158 312,151 Q308,144 318,137"/>
    <path d="M340,185 Q348,177 355,170 Q352,165 362,158 Q358,151 368,144"/>
    
    <!-- Close trees — heavy density, 6-8 strokes -->
    <path d="M0,250 Q10,240 20,230 Q15,220 30,205 Q25,195 40,182 Q35,175 50,165 Q45,155 60,145 Q55,135 70,128"/>
    <path d="M40,255 Q50,245 60,235 Q55,225 70,210 Q65,200 80,188 Q75,178 90,168 Q85,158 100,150"/>
    <path d="M90,252 Q100,242 110,232 Q105,222 120,208 Q115,198 130,186 Q125,176 140,168 Q135,158 150,152"/>
    <path d="M150,258 Q160,248 170,238 Q165,228 180,215 Q175,205 190,193 Q185,183 200,175 Q195,165 210,158"/>
    <path d="M220,255 Q230,245 240,235 Q235,225 250,212 Q245,202 260,190 Q255,180 270,172 Q265,162 280,155"/>
    <path d="M295,258 Q305,248 315,238 Q310,228 325,215 Q320,205 335,193 Q330,183 345,175 Q340,165 355,158"/>
    <path d="M375,252 Q385,242 395,232 Q390,222 405,210 Q400,200 415,188 Q410,178 425,170 Q420,160 435,155"/>
    
    <!-- Ground — sparse lines -->
    <path d="M0,285 Q50,283 100,286 Q150,288 200,284 Q250,282 300,285 Q350,287 400,283"/>
    <path d="M50,290 Q100,288 150,291 Q200,289 250,290 Q300,288 350,291"/>
  </g>
</svg>