<?xml version="1.0" encoding="UTF-8"?>
<svg xmlns="http://www.w3.org/2000/svg" viewBox="0 0 400 300" width="400" height="300">
  <!-- Landscape Composition — All rules applied -->
  <g fill="none" stroke="#1a1a1a" stroke-width="0.4" stroke-linecap="round" stroke-linejoin="round">
    
    <!-- Sky — sparse, light -->
    <line x1="50" y1="25" x2="50" y2="50"/>
    <line x1="100" y1="20" x2="100" y2="55"/>
    <line x1="150" y1="18" x2="150" y2="60"/>
    <line x1="200" y1="15" x2="200" y2="65"/>
    <line x1="250" y1="18" x2="250" y2="60"/>
    <line x1="300" y1="22" x2="300" y2="55"/>
    <line x1="350" y1="28" x2="350" y2="50"/>
    
    <!-- Horizon line — imperfect -->
    <path d="M50,145 Q100,143 150,146 Q200,144 250,145 Q300,143 350,146"/>
    
    <!-- Distant trees — light density, 2-3 strokes each -->
    <path d="M20,145 Q25,140 30,135 Q28,132 35,128"/>
    <path d="M55,146 Q60,141 65,137 Q63,134 70,130"/>
    <path d="M90,145 Q95,140 100,136 Q98,133 105,129"/>
    <path d="M130,146 Q135,141 140,137 Q138,134 145,130"/>
    <path d="M170,145 Q175,140 180,136 Q178,133 185,129"/>
    <path d="M210,146 Q215,141 220,137 Q218,134 225,130"/>
    <path d="M255,145 Q260,140 265,136 Q263,133 270,129"/>
    <path d="M300,146 Q305,141 310,137 Q308,134 315,130"/>
    <path d="M345,145 Q350,140 355,136 Q353,133 360,129"/>
    
    <!-- Mid-distance trees — medium density -->
    <path d="M0,175 Q12,168 25,160 Q20,155 35,148 Q30,140 45,133 Q40,125 55,118"/>
    <path d="M50,176 Q62,169 75,161 Q70,156 85,149 Q80,141 95,134 Q90,126 105,120"/>
    <path d="M110,174 Q122,167 135,159 Q130,154 145,147 Q140,139 155,132 Q150,124 165,118"/>
    <path d="M180,176 Q192,169 205,161 Q200,156 215,149 Q210,141 225,134 Q220,126 235,120"/>
    <path d="M260,175 Q272,168 285,160 Q280,155 295,148 Q290,140 305,133 Q300,125 315,119"/>
    <path d="M340,174 Q352,167 365,159 Q360,154 375,147 Q370,139 385,132 Q380,124 395,118"/>
    
    <!-- Close trees — heavy density -->
    <path d="M0,230 Q15,218 30,208 Q22,198 40,185 Q32,175 50,162 Q42,152 60,142 Q52,132 70,124"/>
    <path d="M70,232 Q85,220 100,210 Q92,200 110,188 Q102,178 120,166 Q112,156 130,148 Q122,138 140,130"/>
    <path d="M140,228 Q155,216 170,206 Q162,196 180,184 Q172,174 190,162 Q182,152 200,144 Q192,134 210,126"/>
    <path d="M220,230 Q235,218 250,208 Q242,198 260,186 Q252,176 270,164 Q262,154 280,146 Q272,136 290,128"/>
    <path d="M310,228 Q325,216 340,206 Q332,196 350,184 Q342,174 360,162 Q352,152 370,144 Q362,134 380,126"/>
    
    <!-- Focal tree (lone pine) — dark density -->
    <path d="M295,228 Q293,208 298,188 Q294,168 297,148 Q295,128 298,108 Q296,88 297,70"/>
    <path d="M296,180 Q280,172 265,165 Q258,161 250,158"/>
    <path d="M298,155 Q315,148 330,142 Q338,139 348,136"/>
    <path d="M250,158 Q240,153 230,150 Q225,148 218,146"/>
    <path d="M348,136 Q358,132 368,128"/>
    <!-- Pine layers on focal tree -->
    <path d="M265,165 Q258,160 250,155 Q245,152 238,150"/>
    <path d="M330,142 Q322,137 312,134 Q305,131 298,130"/>
    <path d="M230,150 Q222,147 215,145"/>
    <path d="M298,130 Q290,128 282,128"/>
    <path d="M368,128 Q375,126 382,125"/>
    
    <!-- Ground -->
    <path d="M0,285 Q100,282 200,284 Q300,286 400,283"/>
    <path d="M50,292 Q150,289 250,291 Q350,288 400,290"/>
  </g>
</svg>