<?xml version="1.0" encoding="UTF-8"?>
<svg xmlns="http://www.w3.org/2000/svg" viewBox="0 0 400 300" width="400" height="300">
  <!-- Monolith Void - presence through absence -->
  <defs>
    <marker id="arrow" markerWidth="10" markerHeight="10" refX="5" refY="5" orient="auto">
      <path d="M2,2 L8,5 L2,8 Z" fill="#1a1a1a"/>
    </marker>
  </defs>
  
  <g fill="none" stroke="#1a1a1a">
    <!-- The monolith - suggested through edge definition only -->
    <!-- Left edge -->
    <path d="M140,50 L140,250" stroke-width="1.2"/>
    <!-- Right edge -->
    <path d="M260,50 L260,250" stroke-width="1.2"/>
    <!-- Top edge -->
    <path d="M140,50 L260,50" stroke-width="1.0"/>
    
    <!-- Subtle texture on the void within - stippling that fades inward -->
    <g stroke-width="0.3" opacity="0.7">
      <!-- Dense at edges, sparse within - suggesting form without filling -->
      <line x1="145" y1="60" x2="145" y2="65"/>
      <line x1="155" y1="55" x2="155" y2="58"/>
      <line x1="170" y1="52" x2="170" y2="54"/>
      <line x1="190" y1="50" x2="190" y2="50"/>
      <line x1="210" y1="50" x2="210" y2="50"/>
      <line x1="230" y1="52" x2="230" y2="54"/>
      <line x1="245" y1="58" x2="245" y2="62"/>
      <line x1="255" y1="70" x2="255" y2="78"/>
      
      <line x1="150" y1="80" x2="150" y2="85"/>
      <line x1="165" y1="70" x2="165" y2="73"/>
      <line x1="185" y1="62" x2="185" y2="64"/>
      <line x1="215" y1="62" x2="215" y2="64"/>
      <line x1="235" y1="70" x2="235" y2="73"/>
      <line x1="250" y1="85" x2="250" y2="92"/>
      
      <line x1="145" y1="100" x2="145" y2="108"/>
      <line x1="160" y1="90" x2="160" y2="95"/>
      <line x1="180" y1="78" x2="180" y2="80"/>
      <line x1="220" y1="78" x2="220" y2="80"/>
      <line x1="240" y1="90" x2="240" y2="95"/>
      <line x1="255" y1="110" x2="255" y2="120"/>
      
      <!-- Bottom section - more texture -->
      <line x1="145" y1="130" x2="145" y2="142"/>
      <line x1="158" y1="115" x2="158" y2="122"/>
      <line x1="175" y1="100" x2="175" y2="105"/>
      <line x1="225" y1="100" x2="225" y2="105"/>
      <line x1="242" y1="115" x2="242" y2="122"/>
      <line x1="255" y1="140" x2="255" y2="155"/>
      
      <line x1="142" y1="170" x2="142" y2="190"/>
      <line x1="155" y1="150" x2="155" y2="160"/>
      <line x1="172" y1="135" x2="172" y2="142"/>
      <line x1="228" y1="135" x2="228" y2="142"/>
      <line x1="245" y1="150" x2="245" y2="160"/>
      <line x1="258" y1="180" x2="258" y2="200"/>
      
      <line x1="140" y1="220" x2="140" y2="245"/>
      <line x1="150" y1="190" x2="150" y2="205"/>
      <line x1="170" y1="170" x2="170" y2="180"/>
      <line x1="230" y1="170" x2="230" y2="180"/>
      <line x1="250" y1="190" x2="250" y2="205"/>
      <line x1="260" y1="225" x2="260" y2="250"/>
    </g>
    
    <!-- Ground plane - subtle horizon -->
    <path d="M60,250 Q200,248 340,250" stroke-width="0.5"/>
    
    <!-- Size reference - tiny human silhouette suggestion -->
    <path d="M195,250 L195,245 L192,250 L198,250 L195,245" stroke-width="0.4" fill="none"/>
  </g>
</svg>