<?xml version="1.0" encoding="UTF-8"?>
<svg xmlns="http://www.w3.org/2000/svg" viewBox="0 0 400 300" width="400" height="300">
  <!-- One Line Tree — Can I draw a whole tree with ONE stroke? -->
  <g fill="none" stroke="#1a1a1a" stroke-linecap="round" stroke-linejoin="round">
    <!-- One continuous line -->
    <path d="
      M200,290 
      Q195,260 205,240 
      Q198,220 202,200
      Q195,180 200,160
      Q192,140 198,120
      Q190,100 200,80
      Q195,60 205,50
      M202,200 Q180,190 160,180
      M198,160 Q220,150 240,145
      M195,130 Q175,125 155,120
      M202,110 Q225,105 250,100
      M160,180 Q150,170 140,165
      M155,120 Q145,115 135,110
      M240,145 Q255,140 270,135
      M250,100 Q265,95 280,90
      M140,165 Q130,160 120,155
      M135,110 Q125,105 115,100
      M270,135 Q280,130 290,125
      M280,90 Q290,85 300,80
      M120,155 Q115,150 110,145
      M115,100 Q110,95 105,90
    " stroke-width="2.2"/>
    
    <!-- One more stroke for the other side -->
    <path d="
      M200,290 
      Q210,260 198,240
      Q205,220 200,200
      Q210,180 202,160
      Q212,140 205,120
      Q215,100 202,80
    " stroke-width="2.0" opacity="0.8"/>
    
    <!-- That's it. -->
  </g>
</svg>