<?xml version="1.0" encoding="UTF-8"?>
<svg xmlns="http://www.w3.org/2000/svg" viewBox="0 0 400 300" width="400" height="300">
  <!-- Quick Gestures — 5 trees, 30 seconds each feel -->
  <g fill="none" stroke="#1a1a1a" stroke-linecap="round">
    
    <!-- Tree 1 — tall, thin -->
    <path d="M50,280 Q48,240 55,180 Q60,140 52,90" stroke-width="1.8"/>
    <path d="M55,200 Q35,190 25,175" stroke-width="1.0"/>
    <path d="M58,160 Q80,150 100,145" stroke-width="0.9"/>
    <path d="M52,120 Q45,100 60,80" stroke-width="1.1"/>
    <path d="M60,130 Q75,115 90,110" stroke-width="0.8"/>
    
    <!-- Tree 2 — fat, round -->
    <path d="M130,285 Q125,220 135,160 Q145,120 130,80" stroke-width="2.2"/>
    <path d="M132,200 Q110,190 95,180" stroke-width="1.2"/>
    <path d="M138,170 Q160,165 180,160" stroke-width="1.1"/>
    <path d="M130,140 Q115,130 105,120" stroke-width="1.0"/>
    <path d="M135,110 Q150,105 165,100" stroke-width="0.9"/>
    
    <!-- Tree 3 — leaning right -->
    <path d="M200,285 Q215,240 210,190 Q205,150 230,110" stroke-width="2.0"/>
    <path d="M208,230 Q235,225 255,220" stroke-width="1.1"/>
    <path d="M205,200 Q180,195 160,190" stroke-width="1.0"/>
    <path d="M212,170 Q240,165 260,160" stroke-width="0.95"/>
    <path d="M220,130 Q245,125 265,120" stroke-width="0.85"/>
    
    <!-- Tree 4 — stunted -->
    <path d="M290,285 Q295,250 288,220 Q282,190 295,165" stroke-width="2.4"/>
    <path d="M290,250 Q275,245 260,240" stroke-width="1.3"/>
    <path d="M292,230 Q310,225 325,220" stroke-width="1.2"/>
    <path d="M289,205 Q275,200 260,195" stroke-width="1.0"/>
    <path d="M294,185 Q310,180 320,175" stroke-width="0.9"/>
    
    <!-- Tree 5 — wind-blown left -->
    <path d="M370,285 Q365,240 355,200 Q345,160 340,120" stroke-width="1.9"/>
    <path d="M358,230 Q335,225 315,220" stroke-width="1.1"/>
    <path d="M353,200 Q330,195 310,190" stroke-width="1.0"/>
    <path d="M348,170 Q325,165 305,160" stroke-width="0.9"/>
    <path d="M345,140 Q325,135 310,130" stroke-width="0.8"/>
    
  </g>
</svg>