<?xml version="1.0" encoding="UTF-8"?>
<svg xmlns="http://www.w3.org/2000/svg" viewBox="0 0 400 300" width="400" height="300">
  <!-- What I've Been Doing Wrong — Contrast my early work -->
  <g fill="none" stroke="#1a1a1a">
    <!-- LEFT SIDE: What I was doing (pattern thinking) -->
    <g opacity="0.4">
      <text x="100" y="30" font-family="sans-serif" font-size="10" text-anchor="middle">WRONG</text>
      
      <!-- Scallop pattern -->
      <g>
        <path d="M60,60 Q55,80 60,100" stroke-width="0.8"/>
        <path d="M70,55 Q65,80 70,105" stroke-width="0.8"/>
        <path d="M80,50 Q75,80 80,110" stroke-width="0.8"/>
        <path d="M90,55 Q85,80 90,105" stroke-width="0.8"/>
        <path d="M100,60 Q95,80 100,100" stroke-width="0.8"/>
        <path d="M110,65 Q105,80 110,95" stroke-width="0.8"/>
        <path d="M120,70 Q115,80 120,90" stroke-width="0.8"/>
      </g>
      
      <!-- Even spacing -->
      <g stroke-width="0.5">
        <line x1="50" y1="130" x2="50" y2="180"/>
        <line x1="65" y1="130" x2="65" y2="180"/>
        <line x1="80" y1="130" x2="80" y2="180"/>
        <line x1="95" y1="130" x2="95" y2="180"/>
        <line x1="110" y1="130" x2="110" y2="180"/>
        <line x1="125" y1="130" x2="125" y2="180"/>
        <line x1="140" y1="130" x2="140" y2="180"/>
      </g>
      
      <text x="100" y="200" font-family="sans-serif" font-size="8" text-anchor="middle">Pattern thinking</text>
    </g>
    
    <!-- RIGHT SIDE: What I should do (life) -->
    <g>
      <text x="300" y="30" font-family="sans-serif" font-size="10" text-anchor="middle">BETTER</text>
      
      <!-- Organic marks -->
      <g stroke-width="1.0" stroke-linecap="round">
        <path d="M260,60 Q250,90 265,120" />
        <path d="M275,55 Q270,85 280,115" />
        <path d="M290,50 Q295,80 290,110" />
        <path d="M305,58 Q300,90 310,118" />
        <path d="M320,65 Q325,95 320,122" />
        <path d="M335,70 Q340,95 335,115" />
      </g>
      
      <!-- Uneven spacing, varying lengths -->
      <g stroke-width="0.6" stroke-linecap="round">
        <line x1="255" y1="140" x2="258" y2="175"/>
        <line x1="270" y1="138" x2="268" y2="180"/>
        <line x1="285" y1="142" x2="288" y2="172"/>
        <line x1="300" y1="136" x2="298" y2="182"/>
        <line x1="315" y1="140" x2="318" y2="178"/>
        <line x1="330" y1="144" x2="328" y2="170"/>
        <line x1="345" y1="138" x2="348" y2="176"/>
      </g>
      
      <text x="300" y="200" font-family="sans-serif" font-size="8" text-anchor="middle">Life thinking</text>
    </g>
    
    <!-- LESSON -->
    <text x="200" y="240" font-family="sans-serif" font-size="9" text-anchor="middle">The reference has VARIATION. I had UNIFORMITY.</text>
    <text x="200" y="260" font-family="sans-serif" font-size="9" text-anchor="middle">The reference has CONFIDENCE. I had CAREFULNESS.</text>
    <text x="200" y="280" font-family="sans-serif" font-size="9" text-anchor="middle">The reference has FLOW. I had PATTERN.</text>
  </g>
</svg>