<?xml version="1.0" encoding="UTF-8"?>
<svg xmlns="http://www.w3.org/2000/svg" viewBox="0 0 400 300" width="400" height="300">
  <!-- Applied: Single Tree with New Understanding -->
  <g fill="none" stroke="#1a1a1a" stroke-linecap="round">
    <!-- Sun from LEFT -->
    <!-- Shadow on RIGHT side of everything -->
    
    <!-- Main trunk -->
    <path d="M200,285 Q198,240 205,200 Q208,160 198,120" stroke-width="3.0"/>
    
    <!-- Shadow on trunk (right side) -->
    <path d="M202,130 Q210,160 208,200 Q205,240 202,280" stroke-width="4.0" opacity="0.2"/>
    
    <!-- Branch Type 1: 45° upward left -->
    <path d="M202,190 Q180,175 155,165" stroke-width="1.8"/>
    <path d="M155,165 Q145,155 135,148" stroke-width="1.0"/>
    
    <!-- Branch Type 2: Horizontal -->
    <path d="M206,160 Q230,158 255,160" stroke-width="1.6"/>
    
    <!-- Branch Type 3: Downward droop -->
    <path d="M198,140 Q195,160 190,175" stroke-width="1.2"/>
    
    <!-- Root angles (downward from base) -->
    <path d="M200,285 Q190,265 180,245" stroke-width="2.0"/>
    <path d="M200,285 Q210,270 215,255" stroke-width="1.8"/>
    <path d="M200,285 Q195,260 190,240" stroke-width="1.4"/>
    <path d="M200,285 Q205,265 212,248" stroke-width="1.3"/>
    
    <!-- Root shadow -->
    <path d="M182,250 Q185,270 188,285" stroke-width="3.0" opacity="0.2"/>
    <path d="M213,260 Q210,275 208,285" stroke-width="3.0" opacity="0.2"/>
    
    <!-- Simple oval leaves, scattered -->
    <g stroke-width="0.8">
      <ellipse cx="135" cy="148" rx="5" ry="8"/>
      <ellipse cx="125" cy="145" rx="4" ry="7"/>
      <ellipse cx="145" cy="152" rx="5" ry="8"/>
      
      <ellipse cx="255" cy="160" rx="5" ry="8"/>
      <ellipse cx="268" cy="158" rx="4" ry="7"/>
      <ellipse cx="245" cy="162" rx="5" ry="8"/>
      
      <ellipse cx="190" cy="175" rx="4" ry="6"/>
      <ellipse cx="182" cy="170" rx="4" ry="6"/>
    </g>
    
    <!-- Ground -->
    <path d="M50,282 Q200,278 350,285" stroke-width="0.8"/>
    
    <!-- Lesson applied: -->
    <!-- Light direction = shadow placement -->
    <!-- Branch angles = specific types -->
    <!-- Root structure = mirror of branches -->
    <!-- Leaf type = simple ovals -->
  </g>
</svg>