<?xml version="1.0" encoding="UTF-8"?>
<svg xmlns="http://www.w3.org/2000/svg" viewBox="0 0 400 300" width="400" height="300">
  <title>HB 46 - Rolling Hills</title>
  <g fill="none" stroke="#1a4a6e" stroke-width="0.35" stroke-linecap="round">
    
    <!-- Sky - very sparse vertical lines -->
    <g opacity="0.25">
      <line x1="40" y1="10" x2="40" y2="60"/>
      <line x1="100" y1="8" x2="100" y2="55"/>
      <line x1="200" y1="5" x2="200" y2="50"/>
      <line x1="300" y1="8" x2="300" y2="55"/>
      <line x1="360" y1="12" x2="360" y2="65"/>
    </g>
    
    <!-- Distant hills - light hatching, receding -->
    <path d="M0,100 Q100,85 200,95 T400,90" opacity="0.35"/>
    <g opacity="0.3" stroke-width="0.25">
      <line x1="20" y1="92" x2="20" y2="98"/>
      <line x1="60" y1="90" x2="60" y2="96"/>
      <line x1="120" y1="93" x2="120" y2="99"/>
      <line x1="180" y1="88" x2="180" y2="94"/>
      <line x1="250" y1="92" x2="250" y2="98"/>
      <line x1="320" y1="90" x2="320" y2="96"/>
      <line x1="380" y1="93" x2="380" y2="99"/>
    </g>
    
    <!-- Mid hills - medium density -->
    <path d="M0,140 Q80,125 160,140 T320,135 T400,145" opacity="0.5"/>
    <g opacity="0.45" stroke-width="0.3">
      <line x1="30" y1="138" x2="30" y2="150"/>
      <line x1="70" y1="135" x2="70" y2="148"/>
      <line x1="110" y1="140" x2="110" y2="155"/>
      <line x1="150" y1="138" x2="150" y2="152"/>
      <line x1="200" y1="132" x2="200" y2="145"/>
      <line x1="260" y1="138" x2="260" y2="150"/>
      <line x1="320" y1="135" x2="320" y2="148"/>
      <line x1="370" y1="142" x2="370" y2="155"/>
    </g>
    
    <!-- Foreground hill - denser -->
    <path d="M0,200 Q100,190 200,210 T400,195" opacity="0.6"/>
    <g opacity="0.55" stroke-width="0.32">
      <line x1="25" y1="200" x2="25" y2="230"/>
      <line x1="55" y1="198" x2="55" y2="228"/>
      <line x1="85" y1="205" x2="85" y2="240"/>
      <line x1="115" y1="195" x2="115" y2="225"/>
      <line x1="145" y1="202" x2="145" y2="238"/>
      <line x1="175" y1="198" x2="175" y2="232"/>
      <line x1="205" y1="208" x2="205" y2="245"/>
      <line x1="235" y1="195" x2="235" y2="228"/>
      <line x1="265" y1="202" x2="265" y2="238"/>
      <line x1="295" y1="198" x2="295" y2="230"/>
      <line x1="325" y1="205" x2="325" y2="242"/>
      <line x1="355" y1="192" x2="355" y2="225"/>
      <line x1="385" y1="200" x2="385" y2="235"/>
    </g>
    
    <!-- Small tree cluster midground -->
    <g opacity="0.5" stroke-width="0.28">
      <path d="M280,145 Q275,120 285,95" stroke-width="0.35"/>
      <line x1="270" y1="105" x2="275" y2="135"/>
      <line x1="275" y1="115" x2="280" y2="145"/>
      <line x1="280" y1="110" x2="285" y2="140"/>
      <line x1="285" y1="100" x2="290" y2="130"/>
      <line x1="290" y1="108" x2="295" y2="138"/>
    </g>
    
  </g>
</svg>