<?xml version="1.0" encoding="UTF-8"?>
<svg xmlns="http://www.w3.org/2000/svg" viewBox="0 0 250 200" width="250" height="200">
  <title>HB 50 - Vegetation Cluster</title>
  <g fill="none" stroke="#1a4a6e" stroke-width="0.35" stroke-linecap="round">
    
    <!-- Ground line -->
    <path d="M0,175 Q125,168 250,172"/>
    
    <!-- Bush cluster left -->
    <g opacity="0.55">
      <path d="M10,175 Q5,140 25,120 Q40,100 60,110 Q75,105 80,130 Q85,155 75,175"/>
      <!-- Vertical hatching inside -->
      <line x1="15" y1="165" x2="15" y2="175"/>
      <line x1="25" y1="155" x2="25" y2="170"/>
      <line x1="35" y1="145" x2="35" y2="165"/>
      <line x1="45" y1="138" x2="45" y2="160"/>
      <line x1="55" y1="135" x2="55" y2="155"/>
      <line x1="65" y1="132" x2="65" y2="150"/>
      <line x1="72" y1="140" x2="72" y2="165"/>
    </g>
    
    <!-- Bush cluster right -->
    <g opacity="0.5">
      <path d="M170,175 Q175,135 195,115 Q215,95 235,110 Q248,105 250,130 Q252,155 240,175"/>
      <!-- Vertical hatching inside -->
      <line x1="178" y1="165" x2="178" y2="175"/>
      <line x1="188" y1="155" x2="188" y2="172"/>
      <line x1="198" y1="142" x2="198" y2="165"/>
      <line x1="208" y1="132" x2="208" y2="158"/>
      <line x1="218" y1="125" x2="218" y2="148"/>
      <line x1="228" y1="120" x2="228" y2="140"/>
      <line x1="238" y1="128" x2="238" y2="152"/>
    </g>
    
    <!-- Individual grasses -->
    <g opacity="0.4" stroke-width="0.25">
      <path d="M85,175 Q80,155 75,145"/>
      <path d="M90,175 Q92,150 95,138"/>
      <path d="M95,175 Q100,155 105,142"/>
      <path d="M145,175 Q140,158 135,148"/>
      <path d="M150,175 Q155,152 160,140"/>
    </g>
    
  </g>
</svg>