<?xml version="1.0" encoding="UTF-8"?>
<svg xmlns="http://www.w3.org/2000/svg" viewBox="0 0 200 150" width="200" height="150">
  <title>HB 58 - Fence Study</title>
  <g fill="none" stroke="#1a4a6e" stroke-width="0.35" stroke-linecap="round">
    
    <!-- Ground line -->
    <path d="M0,130 Q100,125 200,128"/>
    
    <!-- Posts - varying heights -->
    <path d="M20,130 L20,70" stroke-width="0.4"/>
    <path d="M55,128 L55,80" stroke-width="0.4"/>
    <path d="M90,125 L90,65" stroke-width="0.4"/>
    <path d="M125,128 L125,75" stroke-width="0.4"/>
    <path d="M160,130 L160,85" stroke-width="0.4"/>
    <path d="M195,127 L195,78" stroke-width="0.4"/>
    
    <!-- Cross beams -->
    <path d="M15,85 L200,95" stroke-width="0.32"/>
    <path d="M10,105 L200,115" stroke-width="0.32"/>
    
    <!-- Wood grain on posts - vertical suggestion -->
    <g opacity="0.3" stroke-width="0.2">
      <line x1="18" y1="75" x2="18" y2="125"/>
      <line x1="22" y1="78" x2="22" y2="128"/>
      <line x1="53" y1="85" x2="53" y2="125"/>
      <line x1="57" y1="82" x2="57" y2="125"/>
      <line x1="88" y1="70" x2="88" y2="120"/>
      <line x1="92" y1="68" x2="92" y2="122"/>
      <line x1="123" y1="80" x2="123" y2="125"/>
      <line x1="127" y1="82" x2="127" y2="126"/>
      <line x1="158" y1="90" x2="158" y2="128"/>
      <line x1="162" y1="88" x2="162" y2="128"/>
      <line x1="193" y1="82" x2="193" y2="125"/>
      <line x1="197" y1="85" x2="197" y2="125"/>
    </g>
    
    <!-- Ground vegetation at base -->
    <g opacity="0.4" stroke-width="0.22">
      <line x1="15" y1="128" x2="12" y2="138"/>
      <line x1="25" y1="130" x2="28" y2="142"/>
      <line x1="50" y1="126" x2="48" y2="136"/>
      <line x1="60" y1="128" x2="62" y2="140"/>
      <line x1="85" y1="124" x2="82" y2="134"/>
      <line x1="95" y1="126" x2="98" y2="138"/>
      <line x1="120" y1="126" x2="118" y2="136"/>
      <line x1="130" y1="128" x2="132" y2="140"/>
      <line x1="155" y1="128" x2="152" y2="138"/>
      <line x1="165" y1="130" x2="168" y2="142"/>
      <line x1="190" y1="126" x2="188" y2="136"/>
    </g>
    
  </g>
</svg>