<svg viewBox="0 0 200 300" xmlns="http://www.w3.org/2000/svg">
  <rect width="200" height="300" fill="#faf8f5"/>
  <rect x="55" y="75" width="90" height="150" rx="40" fill="none" stroke="#1a1a2e" stroke-width="1.5"/>
  <circle cx="135" cy="178" r="1" fill="#1a1a2e" opacity="0.92"/><circle cx="121" cy="110" r="2" fill="#1a1a2e" opacity="0.94"/><circle cx="87" cy="169" r="2" fill="#1a1a2e" opacity="0.90"/><circle cx="103" cy="161" r="2" fill="#1a1a2e" opacity="0.93"/><circle cx="87" cy="116" r="1" fill="#1a1a2e" opacity="0.91"/><circle cx="106" cy="134" r="1" fill="#1a1a2e" opacity="0.90"/><circle cx="117" cy="166" r="2" fill="#1a1a2e" opacity="0.91"/><circle cx="133" cy="111" r="2" fill="#1a1a2e" opacity="0.93"/><circle cx="118" cy="168" r="2" fill="#1a1a2e" opacity="0.92"/><circle cx="118" cy="117" r="1" fill="#1a1a2e" opacity="0.93"/><circle cx="126" cy="119" r="2" fill="#1a1a2e" opacity="0.92"/><circle cx="63" cy="140" r="2" fill="#1a1a2e" opacity="0.93"/><circle cx="72" cy="110" r="1" fill="#1a1a2e" opacity="0.90"/><circle cx="73" cy="164" r="1" fill="#1a1a2e" opacity="0.93"/><circle cx="137" cy="128" r="2" fill="#1a1a2e" opacity="0.90"/><circle cx="63" cy="130" r="2" fill="#1a1a2e" opacity="0.91"/><circle cx="84" cy="136" r="2" fill="#1a1a2e" opacity="0.90"/><circle cx="136" cy="131" r="2" fill="#1a1a2e" opacity="0.90"/><circle cx="67" cy="170" r="2" fill="#1a1a2e" opacity="0.92"/><circle cx="80" cy="166" r="1" fill="#1a1a2e" opacity="0.94"/><circle cx="104" cy="131" r="2" fill="#1a1a2e" opacity="0.93"/><circle cx="116" cy="122" r="1" fill="#1a1a2e" opacity="0.94"/><circle cx="99" cy="178" r="1" fill="#1a1a2e" opacity="0.94"/><circle cx="137" cy="134" r="2" fill="#1a1a2e" opacity="0.91"/><circle cx="135" cy="114" r="1" fill="#1a1a2e" opacity="0.94"/><circle cx="62" cy="118" r="1" fill="#1a1a2e" opacity="0.90"/><circle cx="105" cy="138" r="2" fill="#1a1a2e" opacity="0.91"/><circle cx="63" cy="178" r="2" fill="#1a1a2e" opacity="0.91"/><circle cx="60" cy="158" r="1" fill="#1a1a2e" opacity="0.91"/><circle cx="127" cy="117" r="1" fill="#1a1a2e" opacity="0.91"/><circle cx="102" cy="149" r="1" fill="#1a1a2e" opacity="0.92"/><circle cx="74" cy="149" r="1" fill="#1a1a2e" opacity="0.91"/><circle cx="129" cy="166" r="2" fill="#1a1a2e" opacity="0.90"/><circle cx="65" cy="113" r="1" fill="#1a1a2e" opacity="0.90"/><circle cx="66" cy="118" r="2" fill="#1a1a2e" opacity="0.93"/><circle cx="105" cy="183" r="1" fill="#1a1a2e" opacity="0.91"/><circle cx="138" cy="156" r="2" fill="#1a1a2e" opacity="0.94"/><circle cx="94" cy="160" r="1" fill="#1a1a2e" opacity="0.92"/><circle cx="114" cy="156" r="1" fill="#1a1a2e" opacity="0.91"/><circle cx="128" cy="126" r="1" fill="#1a1a2e" opacity="0.92"/><circle cx="115" cy="186" r="1" fill="#1a1a2e" opacity="0.93"/><circle cx="89" cy="174" r="1" fill="#1a1a2e" opacity="0.94"/><circle cx="123" cy="146" r="1" fill="#1a1a2e" opacity="0.92"/><circle cx="121" cy="182" r="1" fill="#1a1a2e" opacity="0.92"/><circle cx="68" cy="133" r="1" fill="#1a1a2e" opacity="0.93"/><circle cx="61" cy="131" r="2" fill="#1a1a2e" opacity="0.92"/><circle cx="75" cy="134" r="2" fill="#1a1a2e" opacity="0.92"/><circle cx="93" cy="189" r="2" fill="#1a1a2e" opacity="0.93"/><circle cx="135" cy="154" r="1" fill="#1a1a2e" opacity="0.93"/><circle cx="81" cy="110" r="2" fill="#1a1a2e" opacity="0.93"/><circle cx="121" cy="130" r="1" fill="#1a1a2e" opacity="0.90"/><circle cx="106" cy="131" r="1" fill="#1a1a2e" opacity="0.91"/><circle cx="74" cy="138" r="2" fill="#1a1a2e" opacity="0.91"/><circle cx="74" cy="149" r="1" fill="#1a1a2e" opacity="0.93"/><circle cx="101" cy="158" r="2" fill="#1a1a2e" opacity="0.93"/><circle cx="110" cy="123" r="2" fill="#1a1a2e" opacity="0.91"/><circle cx="65" cy="138" r="2" fill="#1a1a2e" opacity="0.94"/><circle cx="123" cy="132" r="2" fill="#1a1a2e" opacity="0.94"/><circle cx="89" cy="142" r="2" fill="#1a1a2e" opacity="0.92"/><circle cx="81" cy="115" r="1" fill="#1a1a2e" opacity="0.92"/><circle cx="127" cy="172" r="2" fill="#1a1a2e" opacity="0.93"/><circle cx="118" cy="158" r="2" fill="#1a1a2e" opacity="0.92"/><circle cx="94" cy="151" r="2" fill="#1a1a2e" opacity="0.92"/><circle cx="76" cy="180" r="2" fill="#1a1a2e" opacity="0.94"/><circle cx="94" cy="138" r="2" fill="#1a1a2e" opacity="0.90"/><circle cx="68" cy="154" r="2" fill="#1a1a2e" opacity="0.91"/><circle cx="89" cy="112" r="1" fill="#1a1a2e" opacity="0.91"/><circle cx="87" cy="133" r="2" fill="#1a1a2e" opacity="0.90"/><circle cx="128" cy="139" r="1" fill="#1a1a2e" opacity="0.92"/><circle cx="65" cy="136" r="2" fill="#1a1a2e" opacity="0.94"/><circle cx="100" cy="148" r="2" fill="#1a1a2e" opacity="0.91"/><circle cx="133" cy="114" r="2" fill="#1a1a2e" opacity="0.92"/><circle cx="76" cy="175" r="1" fill="#1a1a2e" opacity="0.94"/><circle cx="77" cy="153" r="1" fill="#1a1a2e" opacity="0.94"/><circle cx="60" cy="140" r="1" fill="#1a1a2e" opacity="0.91"/><circle cx="69" cy="176" r="1" fill="#1a1a2e" opacity="0.93"/><circle cx="129" cy="167" r="2" fill="#1a1a2e" opacity="0.92"/><circle cx="87" cy="126" r="2" fill="#1a1a2e" opacity="0.94"/><circle cx="96" cy="184" r="1" fill="#1a1a2e" opacity="0.91"/><circle cx="88" cy="147" r="2" fill="#1a1a2e" opacity="0.92"/><circle cx="111" cy="177" r="2" fill="#1a1a2e" opacity="0.93"/><circle cx="111" cy="131" r="2" fill="#1a1a2e" opacity="0.90"/><circle cx="114" cy="167" r="1" fill="#1a1a2e" opacity="0.90"/><circle cx="115" cy="117" r="2" fill="#1a1a2e" opacity="0.93"/><circle cx="133" cy="113" r="1" fill="#1a1a2e" opacity="0.93"/><circle cx="111" cy="120" r="2" fill="#1a1a2e" opacity="0.91"/><circle cx="135" cy="165" r="1" fill="#1a1a2e" opacity="0.91"/><circle cx="79" cy="167" r="1" fill="#1a1a2e" opacity="0.91"/><circle cx="82" cy="125" r="2" fill="#1a1a2e" opacity="0.93"/><circle cx="128" cy="155" r="2" fill="#1a1a2e" opacity="0.94"/><circle cx="68" cy="160" r="2" fill="#1a1a2e" opacity="0.92"/><circle cx="60" cy="131" r="1" fill="#1a1a2e" opacity="0.93"/><circle cx="102" cy="127" r="1" fill="#1a1a2e" opacity="0.90"/><circle cx="100" cy="166" r="2" fill="#1a1a2e" opacity="0.93"/><circle cx="60" cy="170" r="1" fill="#1a1a2e" opacity="0.92"/><circle cx="133" cy="157" r="2" fill="#1a1a2e" opacity="0.90"/><circle cx="121" cy="168" r="2" fill="#1a1a2e" opacity="0.91"/><circle cx="68" cy="172" r="1" fill="#1a1a2e" opacity="0.90"/><circle cx="84" cy="138" r="2" fill="#1a1a2e" opacity="0.91"/><circle cx="77" cy="145" r="2" fill="#1a1a2e" opacity="0.94"/><circle cx="135" cy="146" r="1" fill="#1a1a2e" opacity="0.93"/><circle cx="97" cy="146" r="1" fill="#1a1a2e" opacity="0.92"/><circle cx="129" cy="182" r="1" fill="#1a1a2e" opacity="0.93"/><circle cx="139" cy="156" r="2" fill="#1a1a2e" opacity="0.90"/><circle cx="126" cy="124" r="1" fill="#1a1a2e" opacity="0.92"/><circle cx="64" cy="150" r="1" fill="#1a1a2e" opacity="0.92"/><circle cx="108" cy="160" r="1" fill="#1a1a2e" opacity="0.90"/><circle cx="89" cy="116" r="2" fill="#1a1a2e" opacity="0.90"/><circle cx="95" cy="166" r="2" fill="#1a1a2e" opacity="0.93"/><circle cx="138" cy="142" r="1" fill="#1a1a2e" opacity="0.94"/><circle cx="72" cy="152" r="2" fill="#1a1a2e" opacity="0.91"/><circle cx="130" cy="127" r="1" fill="#1a1a2e" opacity="0.92"/><circle cx="120" cy="167" r="1" fill="#1a1a2e" opacity="0.93"/><circle cx="110" cy="141" r="2" fill="#1a1a2e" opacity="0.93"/><circle cx="61" cy="181" r="2" fill="#1a1a2e" opacity="0.93"/><circle cx="74" cy="112" r="1" fill="#1a1a2e" opacity="0.94"/><circle cx="115" cy="185" r="1" fill="#1a1a2e" opacity="0.92"/><circle cx="89" cy="112" r="2" fill="#1a1a2e" opacity="0.91"/><circle cx="75" cy="138" r="1" fill="#1a1a2e" opacity="0.93"/><circle cx="70" cy="178" r="2" fill="#1a1a2e" opacity="0.92"/><circle cx="114" cy="155" r="1" fill="#1a1a2e" opacity="0.93"/><circle cx="119" cy="169" r="1" fill="#1a1a2e" opacity="0.90"/><circle cx="125" cy="169" r="2" fill="#1a1a2e" opacity="0.91"/><circle cx="81" cy="185" r="1" fill="#1a1a2e" opacity="0.94"/><circle cx="112" cy="154" r="1" fill="#1a1a2e" opacity="0.91"/><circle cx="101" cy="155" r="2" fill="#1a1a2e" opacity="0.93"/><circle cx="108" cy="158" r="1" fill="#1a1a2e" opacity="0.90"/><circle cx="101" cy="127" r="2" fill="#1a1a2e" opacity="0.90"/><circle cx="83" cy="151" r="2" fill="#1a1a2e" opacity="0.94"/><circle cx="126" cy="128" r="1" fill="#1a1a2e" opacity="0.90"/><circle cx="120" cy="130" r="1" fill="#1a1a2e" opacity="0.92"/><circle cx="114" cy="153" r="1" fill="#1a1a2e" opacity="0.91"/><circle cx="110" cy="140" r="2" fill="#1a1a2e" opacity="0.94"/><circle cx="137" cy="161" r="2" fill="#1a1a2e" opacity="0.92"/><circle cx="64" cy="133" r="1" fill="#1a1a2e" opacity="0.94"/><circle cx="118" cy="166" r="1" fill="#1a1a2e" opacity="0.92"/><circle cx="134" cy="162" r="1" fill="#1a1a2e" opacity="0.93"/><circle cx="118" cy="129" r="1" fill="#1a1a2e" opacity="0.92"/><circle cx="123" cy="115" r="1" fill="#1a1a2e" opacity="0.90"/><circle cx="77" cy="111" r="1" fill="#1a1a2e" opacity="0.93"/><circle cx="80" cy="146" r="2" fill="#1a1a2e" opacity="0.94"/><circle cx="134" cy="156" r="1" fill="#1a1a2e" opacity="0.91"/><circle cx="77" cy="147" r="2" fill="#1a1a2e" opacity="0.92"/><circle cx="127" cy="135" r="2" fill="#1a1a2e" opacity="0.90"/><circle cx="81" cy="122" r="2" fill="#1a1a2e" opacity="0.91"/><circle cx="62" cy="176" r="2" fill="#1a1a2e" opacity="0.92"/><circle cx="107" cy="143" r="2" fill="#1a1a2e" opacity="0.92"/><circle cx="121" cy="159" r="2" fill="#1a1a2e" opacity="0.91"/><circle cx="76" cy="159" r="2" fill="#1a1a2e" opacity="0.91"/><circle cx="117" cy="132" r="2" fill="#1a1a2e" opacity="0.91"/><circle cx="79" cy="153" r="1" fill="#1a1a2e" opacity="0.94"/><circle cx="113" cy="169" r="1" fill="#1a1a2e" opacity="0.93"/><circle cx="132" cy="126" r="1" fill="#1a1a2e" opacity="0.90"/><circle cx="99" cy="135" r="1" fill="#1a1a2e" opacity="0.92"/><circle cx="128" cy="150" r="2" fill="#1a1a2e" opacity="0.90"/><circle cx="124" cy="160" r="2" fill="#1a1a2e" opacity="0.92"/><circle cx="107" cy="117" r="1" fill="#1a1a2e" opacity="0.90"/><circle cx="112" cy="133" r="1" fill="#1a1a2e" opacity="0.92"/><circle cx="97" cy="170" r="2" fill="#1a1a2e" opacity="0.93"/><circle cx="121" cy="158" r="2" fill="#1a1a2e" opacity="0.94"/><circle cx="135" cy="188" r="1" fill="#1a1a2e" opacity="0.90"/><circle cx="76" cy="169" r="2" fill="#1a1a2e" opacity="0.90"/><circle cx="110" cy="123" r="1" fill="#1a1a2e" opacity="0.94"/><circle cx="124" cy="175" r="1" fill="#1a1a2e" opacity="0.91"/><circle cx="108" cy="189" r="2" fill="#1a1a2e" opacity="0.92"/><circle cx="103" cy="111" r="1" fill="#1a1a2e" opacity="0.94"/><circle cx="109" cy="181" r="1" fill="#1a1a2e" opacity="0.91"/><circle cx="73" cy="157" r="2" fill="#1a1a2e" opacity="0.94"/><circle cx="76" cy="143" r="2" fill="#1a1a2e" opacity="0.90"/><circle cx="95" cy="165" r="1" fill="#1a1a2e" opacity="0.93"/><circle cx="113" cy="127" r="1" fill="#1a1a2e" opacity="0.93"/><circle cx="84" cy="148" r="1" fill="#1a1a2e" opacity="0.90"/><circle cx="88" cy="161" r="1" fill="#1a1a2e" opacity="0.92"/><circle cx="74" cy="161" r="1" fill="#1a1a2e" opacity="0.91"/><circle cx="84" cy="117" r="2" fill="#1a1a2e" opacity="0.91"/><circle cx="68" cy="156" r="1" fill="#1a1a2e" opacity="0.92"/><circle cx="126" cy="162" r="1" fill="#1a1a2e" opacity="0.94"/><circle cx="82" cy="136" r="1" fill="#1a1a2e" opacity="0.91"/><circle cx="60" cy="184" r="1" fill="#1a1a2e" opacity="0.92"/><circle cx="112" cy="167" r="2" fill="#1a1a2e" opacity="0.94"/>
</svg>
