<svg viewBox="0 0 200 300" xmlns="http://www.w3.org/2000/svg">
  <rect width="200" height="300" fill="#faf8f5"/>
  <circle cx="100" cy="150" r="64" fill="none" stroke="#1a1a2e" stroke-width="1.5"/>
  <circle cx="110" cy="140" r="1" fill="#1a1a2e"/><circle cx="109" cy="149" r="1" fill="#1a1a2e"/><circle cx="111" cy="145" r="1" fill="#1a1a2e"/><circle cx="115" cy="152" r="1" fill="#1a1a2e"/><circle cx="119" cy="147" r="1" fill="#1a1a2e"/><circle cx="112" cy="152" r="1" fill="#1a1a2e"/><circle cx="81" cy="157" r="1" fill="#1a1a2e"/><circle cx="119" cy="153" r="1" fill="#1a1a2e"/><circle cx="97" cy="153" r="1" fill="#1a1a2e"/><circle cx="104" cy="141" r="1" fill="#1a1a2e"/><circle cx="93" cy="143" r="1" fill="#1a1a2e"/><circle cx="93" cy="147" r="1" fill="#1a1a2e"/><circle cx="98" cy="155" r="1" fill="#1a1a2e"/><circle cx="110" cy="148" r="1" fill="#1a1a2e"/><circle cx="116" cy="158" r="1" fill="#1a1a2e"/><circle cx="107" cy="140" r="1" fill="#1a1a2e"/><circle cx="95" cy="154" r="1" fill="#1a1a2e"/><circle cx="91" cy="151" r="1" fill="#1a1a2e"/><circle cx="113" cy="159" r="1" fill="#1a1a2e"/><circle cx="106" cy="156" r="1" fill="#1a1a2e"/><circle cx="102" cy="142" r="1" fill="#1a1a2e"/><circle cx="93" cy="159" r="1" fill="#1a1a2e"/><circle cx="105" cy="152" r="1" fill="#1a1a2e"/><circle cx="105" cy="146" r="1" fill="#1a1a2e"/><circle cx="117" cy="154" r="1" fill="#1a1a2e"/><circle cx="117" cy="149" r="1" fill="#1a1a2e"/><circle cx="109" cy="140" r="1" fill="#1a1a2e"/><circle cx="91" cy="141" r="1" fill="#1a1a2e"/><circle cx="115" cy="147" r="1" fill="#1a1a2e"/><circle cx="87" cy="150" r="1" fill="#1a1a2e"/><circle cx="100" cy="143" r="1" fill="#1a1a2e"/><circle cx="110" cy="145" r="1" fill="#1a1a2e"/><circle cx="96" cy="156" r="1" fill="#1a1a2e"/><circle cx="92" cy="151" r="1" fill="#1a1a2e"/><circle cx="98" cy="150" r="1" fill="#1a1a2e"/><circle cx="117" cy="159" r="1" fill="#1a1a2e"/><circle cx="90" cy="155" r="1" fill="#1a1a2e"/><circle cx="87" cy="140" r="1" fill="#1a1a2e"/><circle cx="82" cy="148" r="1" fill="#1a1a2e"/><circle cx="112" cy="156" r="1" fill="#1a1a2e"/><circle cx="104" cy="149" r="1" fill="#1a1a2e"/><circle cx="108" cy="151" r="1" fill="#1a1a2e"/><circle cx="101" cy="152" r="1" fill="#1a1a2e"/><circle cx="98" cy="148" r="1" fill="#1a1a2e"/><circle cx="114" cy="156" r="1" fill="#1a1a2e"/><circle cx="86" cy="141" r="1" fill="#1a1a2e"/><circle cx="86" cy="140" r="1" fill="#1a1a2e"/><circle cx="81" cy="153" r="1" fill="#1a1a2e"/><circle cx="115" cy="148" r="1" fill="#1a1a2e"/><circle cx="83" cy="157" r="1" fill="#1a1a2e"/><circle cx="102" cy="142" r="1" fill="#1a1a2e"/><circle cx="91" cy="143" r="1" fill="#1a1a2e"/><circle cx="81" cy="145" r="1" fill="#1a1a2e"/><circle cx="115" cy="140" r="1" fill="#1a1a2e"/><circle cx="119" cy="145" r="1" fill="#1a1a2e"/><circle cx="93" cy="152" r="1" fill="#1a1a2e"/><circle cx="85" cy="147" r="1" fill="#1a1a2e"/><circle cx="99" cy="159" r="1" fill="#1a1a2e"/><circle cx="104" cy="147" r="1" fill="#1a1a2e"/><circle cx="118" cy="150" r="1" fill="#1a1a2e"/><circle cx="87" cy="152" r="1" fill="#1a1a2e"/><circle cx="117" cy="143" r="1" fill="#1a1a2e"/><circle cx="119" cy="150" r="1" fill="#1a1a2e"/><circle cx="110" cy="154" r="1" fill="#1a1a2e"/><circle cx="88" cy="145" r="1" fill="#1a1a2e"/><circle cx="91" cy="142" r="1" fill="#1a1a2e"/><circle cx="97" cy="144" r="1" fill="#1a1a2e"/><circle cx="99" cy="148" r="1" fill="#1a1a2e"/><circle cx="113" cy="144" r="1" fill="#1a1a2e"/><circle cx="101" cy="142" r="1" fill="#1a1a2e"/><circle cx="93" cy="140" r="1" fill="#1a1a2e"/><circle cx="104" cy="141" r="1" fill="#1a1a2e"/><circle cx="99" cy="145" r="1" fill="#1a1a2e"/><circle cx="112" cy="141" r="1" fill="#1a1a2e"/><circle cx="89" cy="155" r="1" fill="#1a1a2e"/><circle cx="105" cy="140" r="1" fill="#1a1a2e"/><circle cx="97" cy="146" r="1" fill="#1a1a2e"/><circle cx="114" cy="149" r="1" fill="#1a1a2e"/><circle cx="92" cy="148" r="1" fill="#1a1a2e"/><circle cx="100" cy="143" r="1" fill="#1a1a2e"/><circle cx="104" cy="150" r="1" fill="#1a1a2e"/><circle cx="83" cy="154" r="1" fill="#1a1a2e"/><circle cx="101" cy="151" r="1" fill="#1a1a2e"/><circle cx="96" cy="149" r="1" fill="#1a1a2e"/><circle cx="85" cy="140" r="1" fill="#1a1a2e"/><circle cx="104" cy="146" r="1" fill="#1a1a2e"/><circle cx="99" cy="157" r="1" fill="#1a1a2e"/><circle cx="115" cy="144" r="1" fill="#1a1a2e"/><circle cx="116" cy="146" r="1" fill="#1a1a2e"/><circle cx="87" cy="145" r="1" fill="#1a1a2e"/><circle cx="97" cy="157" r="1" fill="#1a1a2e"/><circle cx="80" cy="140" r="1" fill="#1a1a2e"/><circle cx="104" cy="150" r="1" fill="#1a1a2e"/><circle cx="81" cy="159" r="1" fill="#1a1a2e"/><circle cx="102" cy="142" r="1" fill="#1a1a2e"/><circle cx="83" cy="152" r="1" fill="#1a1a2e"/><circle cx="88" cy="150" r="1" fill="#1a1a2e"/><circle cx="106" cy="156" r="1" fill="#1a1a2e"/><circle cx="92" cy="151" r="1" fill="#1a1a2e"/><circle cx="116" cy="159" r="1" fill="#1a1a2e"/><circle cx="115" cy="152" r="1" fill="#1a1a2e"/><circle cx="110" cy="146" r="1" fill="#1a1a2e"/><circle cx="115" cy="150" r="1" fill="#1a1a2e"/><circle cx="97" cy="155" r="1" fill="#1a1a2e"/><circle cx="87" cy="150" r="1" fill="#1a1a2e"/><circle cx="112" cy="148" r="1" fill="#1a1a2e"/><circle cx="98" cy="156" r="1" fill="#1a1a2e"/><circle cx="110" cy="149" r="1" fill="#1a1a2e"/><circle cx="94" cy="151" r="1" fill="#1a1a2e"/><circle cx="102" cy="141" r="1" fill="#1a1a2e"/><circle cx="119" cy="146" r="1" fill="#1a1a2e"/><circle cx="103" cy="141" r="1" fill="#1a1a2e"/><circle cx="106" cy="143" r="1" fill="#1a1a2e"/><circle cx="87" cy="150" r="1" fill="#1a1a2e"/><circle cx="101" cy="142" r="1" fill="#1a1a2e"/><circle cx="109" cy="141" r="1" fill="#1a1a2e"/><circle cx="95" cy="141" r="1" fill="#1a1a2e"/><circle cx="90" cy="147" r="1" fill="#1a1a2e"/><circle cx="92" cy="145" r="1" fill="#1a1a2e"/><circle cx="94" cy="144" r="1" fill="#1a1a2e"/><circle cx="98" cy="153" r="1" fill="#1a1a2e"/><circle cx="114" cy="153" r="1" fill="#1a1a2e"/><circle cx="91" cy="149" r="1" fill="#1a1a2e"/><circle cx="92" cy="144" r="1" fill="#1a1a2e"/><circle cx="96" cy="143" r="1" fill="#1a1a2e"/><circle cx="104" cy="147" r="1" fill="#1a1a2e"/><circle cx="94" cy="149" r="1" fill="#1a1a2e"/><circle cx="112" cy="141" r="1" fill="#1a1a2e"/><circle cx="110" cy="152" r="1" fill="#1a1a2e"/><circle cx="113" cy="153" r="1" fill="#1a1a2e"/><circle cx="93" cy="146" r="1" fill="#1a1a2e"/><circle cx="107" cy="142" r="1" fill="#1a1a2e"/><circle cx="106" cy="155" r="1" fill="#1a1a2e"/><circle cx="82" cy="143" r="1" fill="#1a1a2e"/><circle cx="85" cy="152" r="1" fill="#1a1a2e"/><circle cx="91" cy="140" r="1" fill="#1a1a2e"/><circle cx="97" cy="158" r="1" fill="#1a1a2e"/><circle cx="82" cy="152" r="1" fill="#1a1a2e"/><circle cx="115" cy="144" r="1" fill="#1a1a2e"/><circle cx="89" cy="145" r="1" fill="#1a1a2e"/><circle cx="92" cy="141" r="1" fill="#1a1a2e"/><circle cx="92" cy="147" r="1" fill="#1a1a2e"/><circle cx="117" cy="152" r="1" fill="#1a1a2e"/><circle cx="102" cy="151" r="1" fill="#1a1a2e"/><circle cx="106" cy="154" r="1" fill="#1a1a2e"/><circle cx="91" cy="142" r="1" fill="#1a1a2e"/><circle cx="119" cy="147" r="1" fill="#1a1a2e"/><circle cx="99" cy="146" r="1" fill="#1a1a2e"/><circle cx="111" cy="154" r="1" fill="#1a1a2e"/><circle cx="118" cy="143" r="1" fill="#1a1a2e"/><circle cx="90" cy="149" r="1" fill="#1a1a2e"/><circle cx="96" cy="146" r="1" fill="#1a1a2e"/><circle cx="98" cy="155" r="1" fill="#1a1a2e"/><circle cx="94" cy="142" r="1" fill="#1a1a2e"/><circle cx="82" cy="147" r="1" fill="#1a1a2e"/><circle cx="80" cy="144" r="1" fill="#1a1a2e"/><circle cx="106" cy="146" r="1" fill="#1a1a2e"/><circle cx="101" cy="141" r="1" fill="#1a1a2e"/><circle cx="119" cy="145" r="1" fill="#1a1a2e"/><circle cx="80" cy="152" r="1" fill="#1a1a2e"/><circle cx="94" cy="153" r="1" fill="#1a1a2e"/><circle cx="111" cy="149" r="1" fill="#1a1a2e"/><circle cx="98" cy="142" r="1" fill="#1a1a2e"/><circle cx="93" cy="150" r="1" fill="#1a1a2e"/><circle cx="81" cy="155" r="1" fill="#1a1a2e"/><circle cx="114" cy="153" r="1" fill="#1a1a2e"/><circle cx="87" cy="141" r="1" fill="#1a1a2e"/><circle cx="88" cy="153" r="1" fill="#1a1a2e"/><circle cx="97" cy="154" r="1" fill="#1a1a2e"/><circle cx="88" cy="144" r="1" fill="#1a1a2e"/><circle cx="92" cy="150" r="1" fill="#1a1a2e"/><circle cx="88" cy="147" r="1" fill="#1a1a2e"/><circle cx="82" cy="145" r="1" fill="#1a1a2e"/><circle cx="99" cy="150" r="1" fill="#1a1a2e"/><circle cx="96" cy="153" r="1" fill="#1a1a2e"/><circle cx="87" cy="154" r="1" fill="#1a1a2e"/><circle cx="89" cy="156" r="1" fill="#1a1a2e"/><circle cx="91" cy="146" r="1" fill="#1a1a2e"/><circle cx="85" cy="140" r="1" fill="#1a1a2e"/><circle cx="85" cy="154" r="1" fill="#1a1a2e"/><circle cx="81" cy="142" r="1" fill="#1a1a2e"/><circle cx="81" cy="143" r="1" fill="#1a1a2e"/><circle cx="119" cy="154" r="1" fill="#1a1a2e"/><circle cx="108" cy="144" r="1" fill="#1a1a2e"/><circle cx="88" cy="148" r="1" fill="#1a1a2e"/><circle cx="119" cy="150" r="1" fill="#1a1a2e"/><circle cx="81" cy="155" r="1" fill="#1a1a2e"/><circle cx="99" cy="149" r="1" fill="#1a1a2e"/><circle cx="113" cy="140" r="1" fill="#1a1a2e"/><circle cx="87" cy="154" r="1" fill="#1a1a2e"/><circle cx="96" cy="148" r="1" fill="#1a1a2e"/><circle cx="118" cy="158" r="1" fill="#1a1a2e"/><circle cx="86" cy="152" r="1" fill="#1a1a2e"/><circle cx="84" cy="159" r="1" fill="#1a1a2e"/><circle cx="99" cy="143" r="1" fill="#1a1a2e"/><circle cx="111" cy="143" r="1" fill="#1a1a2e"/><circle cx="110" cy="149" r="1" fill="#1a1a2e"/><circle cx="82" cy="152" r="1" fill="#1a1a2e"/><circle cx="95" cy="155" r="1" fill="#1a1a2e"/><circle cx="89" cy="154" r="1" fill="#1a1a2e"/><circle cx="92" cy="140" r="1" fill="#1a1a2e"/><circle cx="108" cy="154" r="1" fill="#1a1a2e"/><circle cx="97" cy="146" r="1" fill="#1a1a2e"/><circle cx="114" cy="145" r="1" fill="#1a1a2e"/><circle cx="92" cy="142" r="1" fill="#1a1a2e"/><circle cx="112" cy="145" r="1" fill="#1a1a2e"/><circle cx="98" cy="145" r="1" fill="#1a1a2e"/><circle cx="93" cy="146" r="1" fill="#1a1a2e"/><circle cx="85" cy="159" r="1" fill="#1a1a2e"/><circle cx="98" cy="145" r="1" fill="#1a1a2e"/><circle cx="80" cy="150" r="1" fill="#1a1a2e"/><circle cx="91" cy="142" r="1" fill="#1a1a2e"/><circle cx="88" cy="145" r="1" fill="#1a1a2e"/><circle cx="94" cy="142" r="1" fill="#1a1a2e"/><circle cx="100" cy="145" r="1" fill="#1a1a2e"/><circle cx="95" cy="158" r="1" fill="#1a1a2e"/><circle cx="80" cy="149" r="1" fill="#1a1a2e"/><circle cx="83" cy="145" r="1" fill="#1a1a2e"/><circle cx="101" cy="147" r="1" fill="#1a1a2e"/><circle cx="114" cy="153" r="1" fill="#1a1a2e"/><circle cx="88" cy="145" r="1" fill="#1a1a2e"/><circle cx="103" cy="148" r="1" fill="#1a1a2e"/><circle cx="86" cy="150" r="1" fill="#1a1a2e"/><circle cx="96" cy="159" r="1" fill="#1a1a2e"/><circle cx="96" cy="149" r="1" fill="#1a1a2e"/><circle cx="111" cy="144" r="1" fill="#1a1a2e"/><circle cx="118" cy="145" r="1" fill="#1a1a2e"/><circle cx="108" cy="154" r="1" fill="#1a1a2e"/><circle cx="94" cy="151" r="1" fill="#1a1a2e"/><circle cx="96" cy="146" r="1" fill="#1a1a2e"/><circle cx="117" cy="157" r="1" fill="#1a1a2e"/><circle cx="113" cy="140" r="1" fill="#1a1a2e"/><circle cx="89" cy="155" r="1" fill="#1a1a2e"/><circle cx="96" cy="143" r="1" fill="#1a1a2e"/><circle cx="118" cy="153" r="1" fill="#1a1a2e"/><circle cx="91" cy="159" r="1" fill="#1a1a2e"/><circle cx="103" cy="144" r="1" fill="#1a1a2e"/><circle cx="109" cy="143" r="1" fill="#1a1a2e"/><circle cx="101" cy="150" r="1" fill="#1a1a2e"/><circle cx="82" cy="154" r="1" fill="#1a1a2e"/><circle cx="90" cy="154" r="1" fill="#1a1a2e"/><circle cx="108" cy="140" r="1" fill="#1a1a2e"/><circle cx="85" cy="148" r="1" fill="#1a1a2e"/><circle cx="106" cy="140" r="1" fill="#1a1a2e"/><circle cx="85" cy="158" r="1" fill="#1a1a2e"/><circle cx="83" cy="150" r="1" fill="#1a1a2e"/><circle cx="105" cy="145" r="1" fill="#1a1a2e"/><circle cx="108" cy="151" r="1" fill="#1a1a2e"/><circle cx="107" cy="143" r="1" fill="#1a1a2e"/><circle cx="96" cy="159" r="1" fill="#1a1a2e"/><circle cx="112" cy="141" r="1" fill="#1a1a2e"/>
</svg>
