<svg viewBox="0 0 200 300" xmlns="http://www.w3.org/2000/svg">
  <rect width="200" height="300" fill="#faf8f5"/>
  <ellipse cx="100" cy="150" rx="56" ry="76" fill="none" stroke="#1a1a2e" stroke-width="1.5"/>
  <circle cx="174" cy="125" r="2" fill="#1a1a2e" opacity="0.38"/><circle cx="184" cy="81" r="1" fill="#1a1a2e" opacity="0.60"/><circle cx="166" cy="233" r="2" fill="#1a1a2e" opacity="0.57"/><circle cx="15" cy="272" r="1" fill="#1a1a2e" opacity="0.51"/><circle cx="29" cy="115" r="1" fill="#1a1a2e" opacity="0.79"/><circle cx="152" cy="36" r="1" fill="#1a1a2e" opacity="0.60"/><circle cx="76" cy="223" r="1" fill="#1a1a2e" opacity="0.76"/><circle cx="62" cy="238" r="2" fill="#1a1a2e" opacity="0.70"/><circle cx="186" cy="191" r="2" fill="#1a1a2e" opacity="0.75"/><circle cx="136" cy="232" r="1" fill="#1a1a2e" opacity="0.40"/><circle cx="129" cy="273" r="1" fill="#1a1a2e" opacity="0.57"/><circle cx="73" cy="96" r="1" fill="#1a1a2e" opacity="0.49"/><circle cx="156" cy="192" r="1" fill="#1a1a2e" opacity="0.57"/><circle cx="20" cy="75" r="1" fill="#1a1a2e" opacity="0.85"/><circle cx="32" cy="258" r="2" fill="#1a1a2e" opacity="0.81"/><circle cx="47" cy="117" r="1" fill="#1a1a2e" opacity="0.47"/><circle cx="105" cy="42" r="1" fill="#1a1a2e" opacity="0.34"/><circle cx="39" cy="146" r="2" fill="#1a1a2e" opacity="0.77"/><circle cx="88" cy="72" r="2" fill="#1a1a2e" opacity="0.83"/><circle cx="48" cy="241" r="1" fill="#1a1a2e" opacity="0.67"/><circle cx="139" cy="237" r="2" fill="#1a1a2e" opacity="0.64"/><circle cx="75" cy="161" r="2" fill="#1a1a2e" opacity="0.87"/><circle cx="93" cy="117" r="1" fill="#1a1a2e" opacity="0.39"/><circle cx="151" cy="23" r="1" fill="#1a1a2e" opacity="0.79"/><circle cx="50" cy="50" r="1" fill="#1a1a2e" opacity="0.85"/><circle cx="148" cy="136" r="2" fill="#1a1a2e" opacity="0.42"/><circle cx="39" cy="53" r="2" fill="#1a1a2e" opacity="0.83"/><circle cx="157" cy="60" r="1" fill="#1a1a2e" opacity="0.74"/><circle cx="129" cy="253" r="2" fill="#1a1a2e" opacity="0.40"/><circle cx="131" cy="182" r="1" fill="#1a1a2e" opacity="0.44"/><circle cx="25" cy="174" r="1" fill="#1a1a2e" opacity="0.39"/><circle cx="25" cy="107" r="2" fill="#1a1a2e" opacity="0.47"/><circle cx="138" cy="115" r="2" fill="#1a1a2e" opacity="0.80"/><circle cx="90" cy="218" r="2" fill="#1a1a2e" opacity="0.34"/><circle cx="183" cy="151" r="1" fill="#1a1a2e" opacity="0.65"/><circle cx="21" cy="248" r="2" fill="#1a1a2e" opacity="0.61"/><circle cx="141" cy="157" r="2" fill="#1a1a2e" opacity="0.33"/><circle cx="54" cy="248" r="1" fill="#1a1a2e" opacity="0.41"/><circle cx="85" cy="225" r="1" fill="#1a1a2e" opacity="0.41"/><circle cx="80" cy="178" r="1" fill="#1a1a2e" opacity="0.71"/><circle cx="178" cy="96" r="2" fill="#1a1a2e" opacity="0.57"/><circle cx="23" cy="168" r="1" fill="#1a1a2e" opacity="0.34"/><circle cx="12" cy="76" r="1" fill="#1a1a2e" opacity="0.63"/><circle cx="61" cy="190" r="2" fill="#1a1a2e" opacity="0.59"/><circle cx="12" cy="160" r="1" fill="#1a1a2e" opacity="0.67"/><circle cx="38" cy="234" r="2" fill="#1a1a2e" opacity="0.30"/><circle cx="153" cy="101" r="1" fill="#1a1a2e" opacity="0.44"/><circle cx="135" cy="125" r="1" fill="#1a1a2e" opacity="0.69"/>
</svg>
