<svg viewBox="0 0 200 300" xmlns="http://www.w3.org/2000/svg">
  <rect width="200" height="300" fill="#faf8f5"/>
  <circle cx="100" cy="150" r="75" fill="none" stroke="#1a1a2e" stroke-width="1.5"/>
  <circle cx="93" cy="148" r="1" fill="#1a1a2e"/><circle cx="93" cy="158" r="1" fill="#1a1a2e"/><circle cx="90" cy="156" r="1" fill="#1a1a2e"/><circle cx="80" cy="140" r="1" fill="#1a1a2e"/><circle cx="93" cy="155" r="1" fill="#1a1a2e"/><circle cx="111" cy="145" r="1" fill="#1a1a2e"/><circle cx="107" cy="159" r="1" fill="#1a1a2e"/><circle cx="115" cy="146" r="1" fill="#1a1a2e"/><circle cx="81" cy="146" r="1" fill="#1a1a2e"/><circle cx="105" cy="150" r="1" fill="#1a1a2e"/><circle cx="107" cy="140" r="1" fill="#1a1a2e"/><circle cx="111" cy="158" r="1" fill="#1a1a2e"/><circle cx="91" cy="156" r="1" fill="#1a1a2e"/><circle cx="105" cy="146" r="1" fill="#1a1a2e"/><circle cx="110" cy="149" r="1" fill="#1a1a2e"/><circle cx="98" cy="144" r="1" fill="#1a1a2e"/><circle cx="118" cy="153" r="1" fill="#1a1a2e"/><circle cx="86" cy="144" r="1" fill="#1a1a2e"/><circle cx="82" cy="150" r="1" fill="#1a1a2e"/><circle cx="89" cy="140" r="1" fill="#1a1a2e"/><circle cx="119" cy="141" r="1" fill="#1a1a2e"/><circle cx="114" cy="144" r="1" fill="#1a1a2e"/><circle cx="112" cy="152" r="1" fill="#1a1a2e"/><circle cx="90" cy="149" r="1" fill="#1a1a2e"/><circle cx="115" cy="141" r="1" fill="#1a1a2e"/><circle cx="115" cy="146" r="1" fill="#1a1a2e"/><circle cx="98" cy="153" r="1" fill="#1a1a2e"/><circle cx="102" cy="143" r="1" fill="#1a1a2e"/><circle cx="83" cy="154" r="1" fill="#1a1a2e"/><circle cx="98" cy="147" r="1" fill="#1a1a2e"/><circle cx="106" cy="150" r="1" fill="#1a1a2e"/><circle cx="119" cy="151" r="1" fill="#1a1a2e"/><circle cx="119" cy="149" r="1" fill="#1a1a2e"/><circle cx="116" cy="146" r="1" fill="#1a1a2e"/><circle cx="80" cy="154" r="1" fill="#1a1a2e"/><circle cx="114" cy="158" r="1" fill="#1a1a2e"/><circle cx="89" cy="140" r="1" fill="#1a1a2e"/><circle cx="84" cy="158" r="1" fill="#1a1a2e"/><circle cx="91" cy="147" r="1" fill="#1a1a2e"/><circle cx="112" cy="145" r="1" fill="#1a1a2e"/><circle cx="100" cy="159" r="1" fill="#1a1a2e"/><circle cx="82" cy="159" r="1" fill="#1a1a2e"/><circle cx="98" cy="146" r="1" fill="#1a1a2e"/><circle cx="119" cy="143" r="1" fill="#1a1a2e"/><circle cx="87" cy="147" r="1" fill="#1a1a2e"/><circle cx="106" cy="154" r="1" fill="#1a1a2e"/><circle cx="82" cy="143" r="1" fill="#1a1a2e"/><circle cx="117" cy="140" r="1" fill="#1a1a2e"/><circle cx="114" cy="144" r="1" fill="#1a1a2e"/><circle cx="112" cy="149" r="1" fill="#1a1a2e"/><circle cx="105" cy="153" r="1" fill="#1a1a2e"/><circle cx="83" cy="155" r="1" fill="#1a1a2e"/><circle cx="94" cy="145" r="1" fill="#1a1a2e"/><circle cx="85" cy="155" r="1" fill="#1a1a2e"/><circle cx="95" cy="152" r="1" fill="#1a1a2e"/><circle cx="115" cy="150" r="1" fill="#1a1a2e"/><circle cx="100" cy="154" r="1" fill="#1a1a2e"/><circle cx="112" cy="150" r="1" fill="#1a1a2e"/><circle cx="119" cy="142" r="1" fill="#1a1a2e"/><circle cx="96" cy="159" r="1" fill="#1a1a2e"/><circle cx="91" cy="142" r="1" fill="#1a1a2e"/><circle cx="98" cy="141" r="1" fill="#1a1a2e"/><circle cx="91" cy="150" r="1" fill="#1a1a2e"/><circle cx="95" cy="152" r="1" fill="#1a1a2e"/><circle cx="84" cy="151" r="1" fill="#1a1a2e"/><circle cx="99" cy="154" r="1" fill="#1a1a2e"/><circle cx="115" cy="144" r="1" fill="#1a1a2e"/><circle cx="86" cy="150" r="1" fill="#1a1a2e"/><circle cx="111" cy="155" r="1" fill="#1a1a2e"/><circle cx="103" cy="141" r="1" fill="#1a1a2e"/><circle cx="94" cy="143" r="1" fill="#1a1a2e"/><circle cx="101" cy="148" r="1" fill="#1a1a2e"/><circle cx="82" cy="147" r="1" fill="#1a1a2e"/><circle cx="92" cy="152" r="1" fill="#1a1a2e"/><circle cx="99" cy="155" r="1" fill="#1a1a2e"/><circle cx="99" cy="143" r="1" fill="#1a1a2e"/><circle cx="99" cy="154" r="1" fill="#1a1a2e"/><circle cx="83" cy="140" r="1" fill="#1a1a2e"/><circle cx="80" cy="158" r="1" fill="#1a1a2e"/><circle cx="117" cy="148" r="1" fill="#1a1a2e"/><circle cx="90" cy="144" r="1" fill="#1a1a2e"/><circle cx="100" cy="148" r="1" fill="#1a1a2e"/><circle cx="88" cy="144" r="1" fill="#1a1a2e"/><circle cx="115" cy="157" r="1" fill="#1a1a2e"/><circle cx="109" cy="158" r="1" fill="#1a1a2e"/><circle cx="118" cy="146" r="1" fill="#1a1a2e"/><circle cx="106" cy="145" r="1" fill="#1a1a2e"/><circle cx="91" cy="154" r="1" fill="#1a1a2e"/><circle cx="101" cy="150" r="1" fill="#1a1a2e"/><circle cx="83" cy="148" r="1" fill="#1a1a2e"/><circle cx="110" cy="150" r="1" fill="#1a1a2e"/><circle cx="108" cy="146" r="1" fill="#1a1a2e"/><circle cx="84" cy="147" r="1" fill="#1a1a2e"/><circle cx="88" cy="152" r="1" fill="#1a1a2e"/><circle cx="89" cy="157" r="1" fill="#1a1a2e"/><circle cx="86" cy="150" r="1" fill="#1a1a2e"/><circle cx="108" cy="143" r="1" fill="#1a1a2e"/><circle cx="100" cy="157" r="1" fill="#1a1a2e"/><circle cx="105" cy="144" r="1" fill="#1a1a2e"/><circle cx="111" cy="151" r="1" fill="#1a1a2e"/><circle cx="90" cy="156" r="1" fill="#1a1a2e"/><circle cx="114" cy="147" r="1" fill="#1a1a2e"/><circle cx="97" cy="144" r="1" fill="#1a1a2e"/><circle cx="87" cy="141" r="1" fill="#1a1a2e"/><circle cx="82" cy="146" r="1" fill="#1a1a2e"/><circle cx="115" cy="157" r="1" fill="#1a1a2e"/><circle cx="118" cy="147" r="1" fill="#1a1a2e"/><circle cx="94" cy="147" r="1" fill="#1a1a2e"/><circle cx="99" cy="146" r="1" fill="#1a1a2e"/><circle cx="111" cy="155" r="1" fill="#1a1a2e"/><circle cx="112" cy="147" r="1" fill="#1a1a2e"/><circle cx="116" cy="150" r="1" fill="#1a1a2e"/><circle cx="116" cy="142" r="1" fill="#1a1a2e"/><circle cx="100" cy="154" r="1" fill="#1a1a2e"/><circle cx="116" cy="146" r="1" fill="#1a1a2e"/><circle cx="92" cy="159" r="1" fill="#1a1a2e"/><circle cx="81" cy="154" r="1" fill="#1a1a2e"/><circle cx="110" cy="140" r="1" fill="#1a1a2e"/><circle cx="110" cy="140" r="1" fill="#1a1a2e"/><circle cx="99" cy="145" r="1" fill="#1a1a2e"/><circle cx="111" cy="159" r="1" fill="#1a1a2e"/><circle cx="105" cy="147" r="1" fill="#1a1a2e"/><circle cx="97" cy="150" r="1" fill="#1a1a2e"/><circle cx="99" cy="158" r="1" fill="#1a1a2e"/><circle cx="89" cy="143" r="1" fill="#1a1a2e"/><circle cx="106" cy="152" r="1" fill="#1a1a2e"/><circle cx="91" cy="151" r="1" fill="#1a1a2e"/><circle cx="91" cy="140" r="1" fill="#1a1a2e"/><circle cx="110" cy="148" r="1" fill="#1a1a2e"/><circle cx="105" cy="154" r="1" fill="#1a1a2e"/><circle cx="105" cy="140" r="1" fill="#1a1a2e"/><circle cx="107" cy="143" r="1" fill="#1a1a2e"/><circle cx="80" cy="151" r="1" fill="#1a1a2e"/><circle cx="112" cy="142" r="1" fill="#1a1a2e"/><circle cx="82" cy="153" r="1" fill="#1a1a2e"/><circle cx="98" cy="151" r="1" fill="#1a1a2e"/><circle cx="94" cy="142" r="1" fill="#1a1a2e"/><circle cx="87" cy="146" r="1" fill="#1a1a2e"/><circle cx="104" cy="156" r="1" fill="#1a1a2e"/><circle cx="108" cy="149" r="1" fill="#1a1a2e"/><circle cx="113" cy="156" r="1" fill="#1a1a2e"/><circle cx="105" cy="144" r="1" fill="#1a1a2e"/><circle cx="108" cy="143" r="1" fill="#1a1a2e"/><circle cx="89" cy="159" r="1" fill="#1a1a2e"/><circle cx="83" cy="149" r="1" fill="#1a1a2e"/><circle cx="113" cy="154" r="1" fill="#1a1a2e"/><circle cx="90" cy="159" r="1" fill="#1a1a2e"/><circle cx="82" cy="155" r="1" fill="#1a1a2e"/><circle cx="98" cy="156" r="1" fill="#1a1a2e"/><circle cx="101" cy="158" r="1" fill="#1a1a2e"/><circle cx="93" cy="141" r="1" fill="#1a1a2e"/><circle cx="87" cy="149" r="1" fill="#1a1a2e"/><circle cx="84" cy="146" r="1" fill="#1a1a2e"/><circle cx="86" cy="146" r="1" fill="#1a1a2e"/><circle cx="90" cy="149" r="1" fill="#1a1a2e"/><circle cx="99" cy="156" r="1" fill="#1a1a2e"/><circle cx="115" cy="143" r="1" fill="#1a1a2e"/><circle cx="105" cy="146" r="1" fill="#1a1a2e"/><circle cx="101" cy="151" r="1" fill="#1a1a2e"/><circle cx="80" cy="142" r="1" fill="#1a1a2e"/><circle cx="111" cy="140" r="1" fill="#1a1a2e"/><circle cx="117" cy="144" r="1" fill="#1a1a2e"/><circle cx="83" cy="154" r="1" fill="#1a1a2e"/><circle cx="93" cy="142" r="1" fill="#1a1a2e"/><circle cx="97" cy="155" r="1" fill="#1a1a2e"/><circle cx="97" cy="142" r="1" fill="#1a1a2e"/><circle cx="86" cy="140" r="1" fill="#1a1a2e"/><circle cx="104" cy="157" r="1" fill="#1a1a2e"/><circle cx="98" cy="151" r="1" fill="#1a1a2e"/><circle cx="104" cy="151" r="1" fill="#1a1a2e"/><circle cx="94" cy="151" r="1" fill="#1a1a2e"/><circle cx="101" cy="158" r="1" fill="#1a1a2e"/><circle cx="99" cy="154" r="1" fill="#1a1a2e"/><circle cx="82" cy="151" r="1" fill="#1a1a2e"/><circle cx="88" cy="140" r="1" fill="#1a1a2e"/><circle cx="98" cy="150" r="1" fill="#1a1a2e"/><circle cx="112" cy="155" r="1" fill="#1a1a2e"/><circle cx="90" cy="151" r="1" fill="#1a1a2e"/><circle cx="107" cy="141" r="1" fill="#1a1a2e"/><circle cx="99" cy="148" r="1" fill="#1a1a2e"/><circle cx="102" cy="154" r="1" fill="#1a1a2e"/><circle cx="87" cy="157" r="1" fill="#1a1a2e"/><circle cx="88" cy="146" r="1" fill="#1a1a2e"/><circle cx="101" cy="143" r="1" fill="#1a1a2e"/><circle cx="108" cy="150" r="1" fill="#1a1a2e"/><circle cx="102" cy="144" r="1" fill="#1a1a2e"/><circle cx="107" cy="146" r="1" fill="#1a1a2e"/><circle cx="108" cy="143" r="1" fill="#1a1a2e"/><circle cx="98" cy="146" r="1" fill="#1a1a2e"/><circle cx="80" cy="148" r="1" fill="#1a1a2e"/><circle cx="80" cy="147" r="1" fill="#1a1a2e"/><circle cx="85" cy="144" r="1" fill="#1a1a2e"/><circle cx="98" cy="159" r="1" fill="#1a1a2e"/><circle cx="81" cy="158" r="1" fill="#1a1a2e"/><circle cx="83" cy="157" r="1" fill="#1a1a2e"/><circle cx="110" cy="155" r="1" fill="#1a1a2e"/><circle cx="92" cy="153" r="1" fill="#1a1a2e"/><circle cx="100" cy="150" r="1" fill="#1a1a2e"/><circle cx="90" cy="147" r="1" fill="#1a1a2e"/><circle cx="118" cy="151" r="1" fill="#1a1a2e"/><circle cx="95" cy="149" r="1" fill="#1a1a2e"/><circle cx="88" cy="154" r="1" fill="#1a1a2e"/><circle cx="115" cy="150" r="1" fill="#1a1a2e"/><circle cx="89" cy="156" r="1" fill="#1a1a2e"/><circle cx="87" cy="145" r="1" fill="#1a1a2e"/><circle cx="81" cy="153" r="1" fill="#1a1a2e"/><circle cx="110" cy="158" r="1" fill="#1a1a2e"/><circle cx="103" cy="146" r="1" fill="#1a1a2e"/><circle cx="112" cy="151" r="1" fill="#1a1a2e"/><circle cx="81" cy="155" r="1" fill="#1a1a2e"/><circle cx="106" cy="159" r="1" fill="#1a1a2e"/><circle cx="93" cy="156" r="1" fill="#1a1a2e"/><circle cx="101" cy="141" r="1" fill="#1a1a2e"/><circle cx="93" cy="153" r="1" fill="#1a1a2e"/><circle cx="88" cy="159" r="1" fill="#1a1a2e"/><circle cx="114" cy="155" r="1" fill="#1a1a2e"/><circle cx="119" cy="148" r="1" fill="#1a1a2e"/><circle cx="81" cy="151" r="1" fill="#1a1a2e"/><circle cx="104" cy="152" r="1" fill="#1a1a2e"/><circle cx="96" cy="153" r="1" fill="#1a1a2e"/><circle cx="115" cy="148" r="1" fill="#1a1a2e"/><circle cx="104" cy="156" r="1" fill="#1a1a2e"/><circle cx="100" cy="148" r="1" fill="#1a1a2e"/><circle cx="105" cy="155" r="1" fill="#1a1a2e"/><circle cx="86" cy="158" r="1" fill="#1a1a2e"/><circle cx="108" cy="153" r="1" fill="#1a1a2e"/><circle cx="88" cy="140" r="1" fill="#1a1a2e"/><circle cx="91" cy="146" r="1" fill="#1a1a2e"/><circle cx="81" cy="141" r="1" fill="#1a1a2e"/><circle cx="118" cy="147" r="1" fill="#1a1a2e"/><circle cx="118" cy="151" r="1" fill="#1a1a2e"/><circle cx="115" cy="149" r="1" fill="#1a1a2e"/><circle cx="98" cy="154" r="1" fill="#1a1a2e"/><circle cx="96" cy="156" r="1" fill="#1a1a2e"/><circle cx="88" cy="145" r="1" fill="#1a1a2e"/><circle cx="117" cy="150" r="1" fill="#1a1a2e"/><circle cx="119" cy="159" r="1" fill="#1a1a2e"/><circle cx="108" cy="156" r="1" fill="#1a1a2e"/><circle cx="99" cy="148" r="1" fill="#1a1a2e"/><circle cx="107" cy="157" r="1" fill="#1a1a2e"/><circle cx="106" cy="146" r="1" fill="#1a1a2e"/><circle cx="95" cy="151" r="1" fill="#1a1a2e"/><circle cx="116" cy="149" r="1" fill="#1a1a2e"/><circle cx="95" cy="159" r="1" fill="#1a1a2e"/><circle cx="87" cy="144" r="1" fill="#1a1a2e"/><circle cx="103" cy="149" r="1" fill="#1a1a2e"/><circle cx="113" cy="145" r="1" fill="#1a1a2e"/><circle cx="117" cy="148" r="1" fill="#1a1a2e"/><circle cx="83" cy="140" r="1" fill="#1a1a2e"/><circle cx="88" cy="152" r="1" fill="#1a1a2e"/><circle cx="117" cy="144" r="1" fill="#1a1a2e"/><circle cx="105" cy="157" r="1" fill="#1a1a2e"/><circle cx="104" cy="142" r="1" fill="#1a1a2e"/><circle cx="104" cy="150" r="1" fill="#1a1a2e"/><circle cx="92" cy="157" r="1" fill="#1a1a2e"/><circle cx="101" cy="148" r="1" fill="#1a1a2e"/><circle cx="80" cy="151" r="1" fill="#1a1a2e"/><circle cx="109" cy="159" r="1" fill="#1a1a2e"/><circle cx="105" cy="146" r="1" fill="#1a1a2e"/><circle cx="104" cy="144" r="1" fill="#1a1a2e"/><circle cx="109" cy="157" r="1" fill="#1a1a2e"/><circle cx="95" cy="150" r="1" fill="#1a1a2e"/><circle cx="116" cy="149" r="1" fill="#1a1a2e"/><circle cx="97" cy="149" r="1" fill="#1a1a2e"/><circle cx="114" cy="149" r="1" fill="#1a1a2e"/><circle cx="84" cy="156" r="1" fill="#1a1a2e"/><circle cx="101" cy="150" r="1" fill="#1a1a2e"/><circle cx="86" cy="140" r="1" fill="#1a1a2e"/><circle cx="110" cy="148" r="1" fill="#1a1a2e"/><circle cx="80" cy="159" r="1" fill="#1a1a2e"/><circle cx="119" cy="159" r="1" fill="#1a1a2e"/><circle cx="86" cy="152" r="1" fill="#1a1a2e"/><circle cx="87" cy="152" r="1" fill="#1a1a2e"/><circle cx="106" cy="152" r="1" fill="#1a1a2e"/><circle cx="102" cy="140" r="1" fill="#1a1a2e"/><circle cx="104" cy="155" r="1" fill="#1a1a2e"/><circle cx="83" cy="157" r="1" fill="#1a1a2e"/><circle cx="91" cy="159" r="1" fill="#1a1a2e"/><circle cx="99" cy="158" r="1" fill="#1a1a2e"/><circle cx="87" cy="141" r="1" fill="#1a1a2e"/><circle cx="83" cy="152" r="1" fill="#1a1a2e"/><circle cx="114" cy="143" r="1" fill="#1a1a2e"/><circle cx="100" cy="142" r="1" fill="#1a1a2e"/><circle cx="92" cy="143" r="1" fill="#1a1a2e"/><circle cx="118" cy="155" r="1" fill="#1a1a2e"/><circle cx="81" cy="150" r="1" fill="#1a1a2e"/><circle cx="110" cy="145" r="1" fill="#1a1a2e"/><circle cx="81" cy="144" r="1" fill="#1a1a2e"/><circle cx="91" cy="144" r="1" fill="#1a1a2e"/><circle cx="99" cy="158" r="1" fill="#1a1a2e"/><circle cx="89" cy="155" r="1" fill="#1a1a2e"/><circle cx="92" cy="145" r="1" fill="#1a1a2e"/><circle cx="95" cy="154" r="1" fill="#1a1a2e"/><circle cx="116" cy="148" r="1" fill="#1a1a2e"/><circle cx="112" cy="142" r="1" fill="#1a1a2e"/><circle cx="84" cy="141" r="1" fill="#1a1a2e"/><circle cx="119" cy="156" r="1" fill="#1a1a2e"/><circle cx="97" cy="151" r="1" fill="#1a1a2e"/><circle cx="93" cy="148" r="1" fill="#1a1a2e"/><circle cx="117" cy="143" r="1" fill="#1a1a2e"/><circle cx="80" cy="144" r="1" fill="#1a1a2e"/><circle cx="88" cy="148" r="1" fill="#1a1a2e"/><circle cx="90" cy="150" r="1" fill="#1a1a2e"/><circle cx="87" cy="155" r="1" fill="#1a1a2e"/><circle cx="101" cy="148" r="1" fill="#1a1a2e"/><circle cx="111" cy="145" r="1" fill="#1a1a2e"/><circle cx="97" cy="144" r="1" fill="#1a1a2e"/><circle cx="106" cy="154" r="1" fill="#1a1a2e"/><circle cx="98" cy="148" r="1" fill="#1a1a2e"/><circle cx="101" cy="144" r="1" fill="#1a1a2e"/><circle cx="98" cy="156" r="1" fill="#1a1a2e"/><circle cx="95" cy="148" r="1" fill="#1a1a2e"/><circle cx="86" cy="142" r="1" fill="#1a1a2e"/><circle cx="95" cy="142" r="1" fill="#1a1a2e"/><circle cx="103" cy="149" r="1" fill="#1a1a2e"/><circle cx="104" cy="152" r="1" fill="#1a1a2e"/><circle cx="101" cy="157" r="1" fill="#1a1a2e"/><circle cx="117" cy="150" r="1" fill="#1a1a2e"/><circle cx="115" cy="142" r="1" fill="#1a1a2e"/><circle cx="94" cy="158" r="1" fill="#1a1a2e"/><circle cx="81" cy="142" r="1" fill="#1a1a2e"/><circle cx="108" cy="149" r="1" fill="#1a1a2e"/><circle cx="89" cy="142" r="1" fill="#1a1a2e"/><circle cx="89" cy="149" r="1" fill="#1a1a2e"/><circle cx="114" cy="151" r="1" fill="#1a1a2e"/><circle cx="93" cy="142" r="1" fill="#1a1a2e"/><circle cx="108" cy="151" r="1" fill="#1a1a2e"/><circle cx="117" cy="151" r="1" fill="#1a1a2e"/><circle cx="97" cy="146" r="1" fill="#1a1a2e"/><circle cx="106" cy="155" r="1" fill="#1a1a2e"/><circle cx="110" cy="153" r="1" fill="#1a1a2e"/><circle cx="97" cy="153" r="1" fill="#1a1a2e"/><circle cx="92" cy="144" r="1" fill="#1a1a2e"/><circle cx="83" cy="149" r="1" fill="#1a1a2e"/><circle cx="113" cy="144" r="1" fill="#1a1a2e"/><circle cx="90" cy="145" r="1" fill="#1a1a2e"/><circle cx="92" cy="149" r="1" fill="#1a1a2e"/><circle cx="119" cy="141" r="1" fill="#1a1a2e"/><circle cx="82" cy="143" r="1" fill="#1a1a2e"/><circle cx="85" cy="159" r="1" fill="#1a1a2e"/><circle cx="117" cy="159" r="1" fill="#1a1a2e"/><circle cx="101" cy="153" r="1" fill="#1a1a2e"/><circle cx="111" cy="155" r="1" fill="#1a1a2e"/><circle cx="103" cy="152" r="1" fill="#1a1a2e"/><circle cx="114" cy="142" r="1" fill="#1a1a2e"/><circle cx="115" cy="149" r="1" fill="#1a1a2e"/><circle cx="90" cy="157" r="1" fill="#1a1a2e"/><circle cx="97" cy="156" r="1" fill="#1a1a2e"/><circle cx="102" cy="156" r="1" fill="#1a1a2e"/><circle cx="115" cy="147" r="1" fill="#1a1a2e"/><circle cx="105" cy="143" r="1" fill="#1a1a2e"/><circle cx="116" cy="155" r="1" fill="#1a1a2e"/><circle cx="84" cy="145" r="1" fill="#1a1a2e"/><circle cx="118" cy="152" r="1" fill="#1a1a2e"/><circle cx="116" cy="158" r="1" fill="#1a1a2e"/><circle cx="87" cy="157" r="1" fill="#1a1a2e"/><circle cx="113" cy="148" r="1" fill="#1a1a2e"/><circle cx="86" cy="150" r="1" fill="#1a1a2e"/><circle cx="104" cy="147" r="1" fill="#1a1a2e"/><circle cx="97" cy="157" r="1" fill="#1a1a2e"/><circle cx="112" cy="147" r="1" fill="#1a1a2e"/><circle cx="85" cy="156" r="1" fill="#1a1a2e"/><circle cx="107" cy="144" r="1" fill="#1a1a2e"/><circle cx="115" cy="140" r="1" fill="#1a1a2e"/><circle cx="105" cy="157" r="1" fill="#1a1a2e"/><circle cx="119" cy="153" r="1" fill="#1a1a2e"/><circle cx="118" cy="154" r="1" fill="#1a1a2e"/><circle cx="98" cy="157" r="1" fill="#1a1a2e"/><circle cx="101" cy="148" r="1" fill="#1a1a2e"/><circle cx="83" cy="159" r="1" fill="#1a1a2e"/><circle cx="115" cy="141" r="1" fill="#1a1a2e"/><circle cx="90" cy="143" r="1" fill="#1a1a2e"/><circle cx="87" cy="159" r="1" fill="#1a1a2e"/><circle cx="103" cy="156" r="1" fill="#1a1a2e"/><circle cx="80" cy="141" r="1" fill="#1a1a2e"/><circle cx="84" cy="159" r="1" fill="#1a1a2e"/><circle cx="80" cy="146" r="1" fill="#1a1a2e"/><circle cx="106" cy="151" r="1" fill="#1a1a2e"/><circle cx="86" cy="141" r="1" fill="#1a1a2e"/><circle cx="96" cy="156" r="1" fill="#1a1a2e"/><circle cx="110" cy="155" r="1" fill="#1a1a2e"/><circle cx="109" cy="150" r="1" fill="#1a1a2e"/><circle cx="89" cy="151" r="1" fill="#1a1a2e"/><circle cx="117" cy="143" r="1" fill="#1a1a2e"/><circle cx="85" cy="140" r="1" fill="#1a1a2e"/><circle cx="112" cy="140" r="1" fill="#1a1a2e"/><circle cx="100" cy="157" r="1" fill="#1a1a2e"/><circle cx="109" cy="150" r="1" fill="#1a1a2e"/><circle cx="92" cy="155" r="1" fill="#1a1a2e"/><circle cx="86" cy="151" r="1" fill="#1a1a2e"/><circle cx="99" cy="156" r="1" fill="#1a1a2e"/><circle cx="95" cy="145" r="1" fill="#1a1a2e"/><circle cx="85" cy="145" r="1" fill="#1a1a2e"/><circle cx="106" cy="154" r="1" fill="#1a1a2e"/><circle cx="84" cy="157" r="1" fill="#1a1a2e"/><circle cx="92" cy="146" r="1" fill="#1a1a2e"/><circle cx="98" cy="143" r="1" fill="#1a1a2e"/><circle cx="100" cy="144" r="1" fill="#1a1a2e"/><circle cx="109" cy="142" r="1" fill="#1a1a2e"/><circle cx="84" cy="156" r="1" fill="#1a1a2e"/><circle cx="82" cy="143" r="1" fill="#1a1a2e"/><circle cx="108" cy="142" r="1" fill="#1a1a2e"/><circle cx="117" cy="154" r="1" fill="#1a1a2e"/><circle cx="99" cy="152" r="1" fill="#1a1a2e"/><circle cx="114" cy="140" r="1" fill="#1a1a2e"/><circle cx="82" cy="146" r="1" fill="#1a1a2e"/><circle cx="88" cy="142" r="1" fill="#1a1a2e"/><circle cx="84" cy="148" r="1" fill="#1a1a2e"/><circle cx="103" cy="150" r="1" fill="#1a1a2e"/><circle cx="87" cy="140" r="1" fill="#1a1a2e"/><circle cx="90" cy="157" r="1" fill="#1a1a2e"/><circle cx="102" cy="148" r="1" fill="#1a1a2e"/><circle cx="119" cy="158" r="1" fill="#1a1a2e"/><circle cx="118" cy="145" r="1" fill="#1a1a2e"/><circle cx="98" cy="158" r="1" fill="#1a1a2e"/><circle cx="88" cy="155" r="1" fill="#1a1a2e"/><circle cx="117" cy="140" r="1" fill="#1a1a2e"/><circle cx="96" cy="157" r="1" fill="#1a1a2e"/><circle cx="91" cy="159" r="1" fill="#1a1a2e"/><circle cx="84" cy="145" r="1" fill="#1a1a2e"/><circle cx="118" cy="140" r="1" fill="#1a1a2e"/><circle cx="83" cy="157" r="1" fill="#1a1a2e"/><circle cx="92" cy="145" r="1" fill="#1a1a2e"/><circle cx="85" cy="146" r="1" fill="#1a1a2e"/><circle cx="110" cy="147" r="1" fill="#1a1a2e"/><circle cx="103" cy="155" r="1" fill="#1a1a2e"/><circle cx="89" cy="141" r="1" fill="#1a1a2e"/><circle cx="87" cy="152" r="1" fill="#1a1a2e"/><circle cx="83" cy="155" r="1" fill="#1a1a2e"/><circle cx="113" cy="142" r="1" fill="#1a1a2e"/><circle cx="100" cy="156" r="1" fill="#1a1a2e"/><circle cx="81" cy="145" r="1" fill="#1a1a2e"/><circle cx="114" cy="143" r="1" fill="#1a1a2e"/><circle cx="105" cy="150" r="1" fill="#1a1a2e"/><circle cx="86" cy="158" r="1" fill="#1a1a2e"/><circle cx="86" cy="145" r="1" fill="#1a1a2e"/><circle cx="105" cy="156" r="1" fill="#1a1a2e"/><circle cx="108" cy="147" r="1" fill="#1a1a2e"/><circle cx="101" cy="159" r="1" fill="#1a1a2e"/><circle cx="102" cy="145" r="1" fill="#1a1a2e"/><circle cx="81" cy="143" r="1" fill="#1a1a2e"/><circle cx="89" cy="145" r="1" fill="#1a1a2e"/><circle cx="95" cy="159" r="1" fill="#1a1a2e"/><circle cx="107" cy="159" r="1" fill="#1a1a2e"/><circle cx="88" cy="148" r="1" fill="#1a1a2e"/><circle cx="115" cy="150" r="1" fill="#1a1a2e"/><circle cx="87" cy="148" r="1" fill="#1a1a2e"/><circle cx="104" cy="143" r="1" fill="#1a1a2e"/><circle cx="117" cy="149" r="1" fill="#1a1a2e"/><circle cx="93" cy="150" r="1" fill="#1a1a2e"/><circle cx="105" cy="143" r="1" fill="#1a1a2e"/><circle cx="96" cy="150" r="1" fill="#1a1a2e"/><circle cx="117" cy="145" r="1" fill="#1a1a2e"/><circle cx="91" cy="159" r="1" fill="#1a1a2e"/><circle cx="87" cy="156" r="1" fill="#1a1a2e"/><circle cx="113" cy="140" r="1" fill="#1a1a2e"/><circle cx="88" cy="150" r="1" fill="#1a1a2e"/><circle cx="116" cy="148" r="1" fill="#1a1a2e"/><circle cx="90" cy="157" r="1" fill="#1a1a2e"/><circle cx="82" cy="146" r="1" fill="#1a1a2e"/>
</svg>
